<?xml version="1.0" encoding="utf-8"?>
<!-- Generator: Adobe Illustrator 23.0.5, SVG Export Plug-In . SVG Version: 6.00 Build 0)  -->
<svg version="1.1" id="Capa_1" xmlns="http://www.w3.org/2000/svg" xmlns:xlink="http://www.w3.org/1999/xlink" x="0px" y="0px"
	 viewBox="0 0 300 110" style="enable-background:new 0 0 300 110;" xml:space="preserve">
<style type="text/css">
	.st0{fill:#FFA100;}
	.st1{fill:#FFFFFF;}
	.st2{fill:#007B42;}
	.st3{fill:#00BC99;}
	.st4{fill:#007C42;}
</style>
<g>
	<g>
		<path class="st0" d="M9.8,63.1c0,0-5.8,30.3,13.3,35.5s39.8,10.1,54.1,6.9S114.9,97.2,128,92s41.2-7.4,43.9-7.2
			c2.8,0.3,52.4,4.4,60.4,7.5s47.2,3.1,38.5-34C262.1,21.2,46.8-3.1,9.8,63.1z"/>
		<path class="st1" d="M66.9,107.4c-4.5,0-9.5-0.4-15.2-1.3c-9.8-1.5-20.1-4.2-28.9-6.6c-4.6-1.2-8.1-4-10.6-8.1
			C10.3,88,9,83.9,8.4,79C8,74.7,8.1,70.6,8.4,67.9C8.6,64.9,9,63,9,63l0-0.1l0.1-0.1c5.5-9.8,15.1-18.1,28.6-24.7
			C49.8,32.1,65.1,27.6,83,24.7c8.3-1.3,17.1-2.4,26.3-3c8.8-0.6,18-0.9,27.4-0.8c9,0.1,18.3,0.4,27.4,1.1
			c8.9,0.7,17.8,1.6,26.4,2.8c10.7,1.5,20.9,3.4,30.2,5.7c9.4,2.3,17.8,4.9,24.9,7.7c7.4,2.9,13.3,6,17.6,9.3
			c4.6,3.5,7.4,7.1,8.2,10.8c1.6,6.7,1.7,12.6,0.3,17.6c-1.2,4.4-3.5,8.2-6.9,11.1c-5.7,4.9-13.2,6.7-18.5,7.2
			c-6.4,0.7-12.1,0-14.6-1c-2.1-0.8-8.9-2.3-29.2-4.5c-12.9-1.4-25.6-2.5-29.8-2.9c-0.6,0-0.9-0.1-1.1-0.1
			c-1.2-0.1-8.7,0.3-17.9,1.5c-7.9,1-18.7,2.8-25.6,5.6c-5.8,2.3-14,4.8-25.1,7.6c-9,2.3-18.1,4.3-25.9,6
			C74.2,107,70.8,107.4,66.9,107.4z M10.6,63.4c-0.2,1-1.3,8-0.5,15.5c1.2,10.5,5.6,16.9,13.2,19c19.7,5.4,39.9,9.9,53.7,6.9
			c13.1-2.9,37.4-8.2,50.7-13.5c7.1-2.8,18-4.7,26-5.7c8.9-1.2,16.7-1.7,18.3-1.6c0.2,0,0.6,0,1.1,0.1c19.4,1.7,52.9,4.9,59.5,7.5
			c1.2,0.5,3.2,0.9,5.5,1.1c2.6,0.2,5.5,0.2,8.3-0.1c5-0.5,12.2-2.2,17.5-6.8c6.9-5.9,8.9-15.1,6.1-27.1c-0.8-3.3-3.3-6.6-7.6-9.9
			c-4.2-3.2-10-6.2-17.2-9.1C230.9,34,212,29.4,190.3,26.4c-18.4-2.6-37.4-3.9-55.7-3.9c-18.2,0-35.7,1.3-51.4,3.8
			C45.9,32.4,20.8,45.2,10.6,63.4z M10.6,63.3L10.6,63.3L10.6,63.3z"/>
	</g>
	<g>
		<path class="st2" d="M5.2,13.7c-0.1,0.9-0.1,1.7-0.2,2.6c-0.2,1.2,0.4,2,1.2,2.7c1.1,1.1,2.5,1.3,4,1.2c2.2-0.2,3.9,0.6,5.2,2.4
			c0.7,1,1,2,0.9,3.1c-0.6,4-1.2,8.1-1.8,12.1c-0.9,5.8-1.8,11.6-2.6,17.4c-0.2,1,0.1,1.5,1.2,1.5c1.2,0,2.4,0,3.5,0
			c4-0.2,8-0.4,12-0.5c0.9,0,1.5-0.6,1.5-1.5c0.1-2.8,0.1-5.5,0.2-8.3c0-1.3,0-2.6,0-4c0.9-0.1,1.7-0.2,2.4-0.3
			c3.2-0.4,6.4-0.8,9.6-1.2c1-0.1,2.1,0,2.9-0.4c3.6-1.7,6.2-4.6,8.4-7.8c0.1-0.1,0.1-0.3,0.2-0.4c0.8-2.9,1.8-5.8,1-8.9
			c-0.2-1-0.2-2.1-0.6-3c-1-2.3-2.3-4.3-4.6-5.5c-0.5-0.3-0.9-0.7-1.4-1c-0.3-0.2-0.7-0.5-1.1-0.6c-2.2-0.6-4.4-1.3-6.7-1.8
			c-1.9-0.4-3.9-0.9-5.8-1c-3.5-0.3-7,0.3-10.4,0.7c-4.7,0.6-9.3,1.3-14,2C8.4,13.4,6.8,13.6,5.2,13.7z"/>
	</g>
	<g>
		<path class="st2" d="M157,47.6c-0.1-0.3-0.1-0.5-0.1-0.7c-0.8-3.1-1.5-6.1-2.3-9.2c-0.1-0.3-0.1-0.7,0-1.1c0.5-1.9,1-3.8,1.5-5.7
			c0.7-2.5,1.7-5,2.1-7.6c0.9-4.8,1.3-9.7,0.9-14.6c-0.1-1.8-0.8-3.5-1.3-5.3c-0.1-0.2-0.3-0.6-0.5-0.6c-0.8,0-1.7-0.2-2.4,0.1
			c-2.8,1.2-5.6,2.4-8.3,3.7c-0.3,0.1-0.6,0.6-0.6,0.9c-0.2,2.4-0.3,4.8-0.5,7.2c-0.1,1.7-0.2,3.3-0.3,5c0,0.7-0.3,1.2-1.2,1.1
			c-1-0.1-2.1-0.1-3.1-0.1c-1.2,0-2.4,0-3.6,0c0-2.6,0-5.1,0-7.6c0-2.7,0-5.4,0-8.1c0-1.9-1.6-2.9-3.4-2.1c-2.5,1-5,2.1-7.5,3.1
			c-0.4,0.2-0.8,0.4-1.2,0.6c0.5,1.3,1,2.4,1.3,3.6c0.8,3.7,1.5,7.5,2.1,11.2c0.1,0.5-0.1,1.1-0.4,1.5c-1.2,2-2.6,3.9-3.8,5.9
			c-0.7,1.1-1.3,2.4-1.4,3.7c-0.2,2.8-0.1,5.6,0.4,8.3c0.4,2.3,0.7,4.7,1,7c0.1,0.4,0.1,0.8,0.7,0.7c2.4-0.3,4.7-0.6,7.1-1
			c1.5-0.2,2.9-0.4,4.5-0.6c0-0.4,0-0.7,0-1c0-3.1,0-6.2,0-9.3c0-0.3,0-0.7,0.1-0.9c0.6-1.1,1.1-2.4,2.5-2.7
			c1.1-0.2,2.1-0.2,3.2-0.2c0.5,0,1.2,0.1,1.6,0.5c0.8,0.8,1.7,1.8,1.5,3.1c0,0.3-0.1,0.6-0.1,0.9c0.2,3.5,0.5,7.1,0.7,10.6
			c0,0.7,0.3,0.8,0.9,0.6c0.4-0.1,0.8-0.2,1.2-0.2C151.3,48.2,154.1,48,157,47.6z"/>
	</g>
	<g>
		<path class="st2" d="M220.5,14.3c0,0.5,0,1.1-0.1,1.6c-0.2,1.1,0.2,1.8,1,2.5c0.9,0.9,2,0.9,3.1,0.8c2.5-0.2,4.4,2.7,4,4.7
			c-0.8,4.4-1.5,8.9-2.2,13.4c-0.5,3-0.9,6-1.3,9c-0.1,0.8,0.2,1.2,1,1.2c1.3,0,2.6-0.1,3.9-0.2c2.4-0.1,4.7-0.2,7.1-0.3
			c1.1,0,1.4-0.4,1.5-1.5c0-1.8,0.1-3.6,0.1-5.4c0-1.2,0-2.5,0-3.8c2.8-0.3,5.4-0.7,8.1-1c1.4-0.2,2.8-0.1,4.1-1.1
			c2.5-1.9,4.6-4,5.4-7.2c0.6-2.4,0.5-4.8-0.1-7.2c-0.7-2.7-2.7-4.6-5.2-5.7c-3.7-1.7-7.6-2.5-11.6-2.4c-1.7,0-3.4,0.3-5,0.6
			C229.8,12.9,225.2,13.6,220.5,14.3z"/>
	</g>
	<g>
		<path class="st2" d="M76.4,9.8c0.1,0.4,0.2,0.8,0.2,1.1c0.1,2.1,0.4,4.3-0.4,6.3c-0.5,1.4,0.3,2.8,1.8,2.7
			c1.6-0.1,3.3-0.1,4.9-0.6c1.8-0.5,3,0,3.9,1.5c0.9,1.3,1.9,2.6,1.9,4.2c0,1.5-0.4,3-1.3,4.3c-1.8,2.7-2,5.6-1.2,8.6
			c0.7,2.6,1.7,5.2,2.5,7.8c0.2,0.5,0.4,0.6,0.9,0.5c2.8-0.7,5.6-1.3,8.4-1.9c1.1-0.3,2.2-0.6,3.5-0.9c-1.2-1.6-2.2-3-3.2-4.5
			c-0.2-0.3-0.5-0.7-0.7-1c-0.9-2.3-1.6-4.8-1.3-7.3c0-0.3,0.2-0.7,0.4-0.9c1.7-1.7,2.5-3.8,2.4-6.2c0-1.3-0.1-2.5-0.1-3.8
			c0-0.7,0-1.5,0-2.3c2.4-0.3,4.7-0.5,7.1-0.8c0.2-3.6-0.6-7-1.7-10.2c-1.8,0.5-3.5,1-5.1,1.6c-3.6,1.1-7.2,0.6-10.6-0.7
			c-0.7-0.3-1.4-0.5-2.1-0.5C83,6.6,79.7,8.2,76.4,9.8z"/>
	</g>
	<g>
		<path class="st2" d="M268,34.9c-0.1,0.2-0.1,0.3-0.2,0.4c-1.1,1.5-2.1,2.9-3.2,4.4c-2.2,2.8-4.3,5.7-6.5,8.5
			c-0.6,0.8-0.4,1.4,0.6,1.7c0.5,0.1,1.1,0.2,1.7,0.3c2.2,0.5,4.4,1.1,6.6,1.6c1.3,0.3,1.6,0.2,2.2-0.9c2.3-4.5,4.6-9.1,6.8-13.7
			c0.8-1.6,2.1-2.7,3.4-3.8c1.4-1.2,3.3-1.5,5-2c0.5-0.1,1-0.4,1.3-0.7c1.2-1.5,2.4-2.9,3.5-4.5c1.5-2.1,3.1-4.2,4.5-6.4
			c1.1-1.5,0.7-2.6-1-3.1c-0.3-0.1-0.7-0.1-1-0.1c-3.6,0.1-7.1,0.1-10.7,0.3c-0.3,0-0.7,0.2-0.8,0.4c-1,1.5-2,3-2.9,4.5
			c-1.1,1.7-2.2,3.5-3.4,5.4c-0.1-0.4-0.2-0.7-0.2-0.9c-0.5-3-1.1-6.1-1.6-9.1c-0.3-1.7-0.4-1.8-2.1-2.1c-2.8-0.5-5.5-1.1-8.3-1.5
			c-0.5-0.1-1.1,0.1-1.8,0.2c0.3,0.6,0.5,0.9,0.7,1.2c0.9,1.2,1.9,2.5,2.8,3.7c0.9,1.2,1,2.7,0.9,4.1c-0.1,1-0.3,1.9-0.6,2.9
			c-0.5,2.1-0.7,4.2,0,6.2c0.1,0.3,0.2,0.6,0.4,0.8c0.8,1.1,1.8,2,3.3,2.1C267.5,34.7,267.7,34.8,268,34.9z"/>
	</g>
	<g>
		<path class="st2" d="M190.3,18.1c0,0.4,0,0.8-0.1,1.3c-0.1,1.5,0.8,2.5,2.3,2.6c0.4,0,0.9,0,1.3,0.1c2.2,0.2,3.5,1.8,3.2,4
			c-0.2,1.4-0.5,2.7-0.8,4.1c-0.6,4.2-1.3,8.4-1.9,12.7c-0.3,2-0.3,2,1.8,2c0,0,0.1,0,0.1,0c2.8-0.1,5.6-0.2,8.3-0.3
			c0.7,0,1.1-0.4,1.2-1.2c0-0.9,0-1.8,0-2.7c0-1.6,0-3.1,0-4.8c2.7-0.3,5.2-0.6,7.7-0.9c0.6-0.1,1.3-0.1,1.9-0.4
			c2.9-1.7,5.3-3.8,5.7-7.4c0.2-1.6,0.2-3.3-0.3-4.7c-0.7-2.3-2.6-3.8-4.8-4.7c-4.5-1.7-9.2-2.1-14-1.3
			C198.1,17.1,194.2,17.6,190.3,18.1z"/>
	</g>
	<g>
		<path class="st2" d="M171.2,49.1c0.1-1.9,0.3-3.8,0.4-5.7c0-0.6,0.2-0.7,0.8-0.8c1.7-0.2,3.4-0.3,5-0.6c0.8-0.1,1.2,0.1,1.6,0.7
			c1,1.4,2,2.8,3,4.2c0.2,0.3,0.4,0.6,0.9,0.4c1.8-0.9,3.5-1.7,5.3-2.6c0.9-0.5,1-1.6,0.4-2.4c-0.9-1.2-1.9-2.3-2.8-3.5
			c-0.9-1.3-1.9-2.6-2.4-4c-1.5-3.8-2.7-7.7-4-11.6c-0.7-2-1.2-4-2.4-5.8c-0.6-0.9-2-1.7-2.7-1.4c-0.7,0.3-1.4,0.7-1.9,1.2
			c-1.8,1.4-3.5,2.9-5.2,4.5c-0.3,0.2-0.5,0.7-0.4,1.1c0.1,1.1,0.4,2.2,0.7,3.3c0.4,1.6,0.1,3.3-0.3,4.8c-0.6,2.2-1.6,4.1-3.5,5.5
			c-0.2,0.1-0.3,0.3-0.4,0.4c-0.2,0.4-0.4,0.8-0.5,1.2c-0.1,1.5-0.2,2.9-0.3,4.4c-0.1,2-0.2,4-0.3,6c0,0.6,0.2,0.8,0.8,0.8
			c1.6,0,3.2,0,4.8,0C168.8,49.1,170,49.1,171.2,49.1z"/>
	</g>
	<g>
		<path class="st2" d="M79.6,32.9c0.1-1.7,0.4-3.1,0.3-4.4c-0.3-2.5-0.3-2.7-2.6-3.4c-1.4-0.4-2.9-0.8-4.3-1.2
			c-0.9-0.2-1.9-0.5-2.9-0.6c-1.5-0.2-3.1-0.3-4.5-1c-0.9-0.5-1.8-0.3-2.6,0.3c0.3,1.5,0.7,2.9,0.9,4.4c0.3,2.4,0.3,4.9-1.2,7.1
			c-0.8,1.2-1.8,2.2-2.5,3.5c-1.6,3.1-3.1,6.2-4.4,9.4c-0.4,1-0.2,2.2,0.5,3.2c0.9,1.4,2.5,1.7,3.9,2c3.6,0.8,7.3,1.4,11,2
			c0.7,0.1,1.8,0.1,2.2-0.4c1.2-1.3,2.2-2.8,3-4.3c0.7-1.3,0.3-1.9-0.9-2.6c-0.2-0.1-0.5-0.2-0.8-0.2c-1.5-0.1-3-0.1-4.5-0.2
			c-0.8,0-1.4-0.3-1.8-1c-0.4-1-0.5-1.9,0.3-2.7c0.8-0.7,1.7-0.7,2.6-0.5c0.8,0.2,1.6,0.4,2.4,0.6c0.1-0.4,0.2-0.7,0.3-1
			c0.3-1.5,0.6-3,1.1-4.4c0.3-0.9,0.1-1.2-0.6-1.5c-0.3-0.1-0.7-0.3-1-0.3c-1.6,0.2-2.6-0.6-3.6-1.7c-0.6-0.6-0.5-1.4,0.2-1.8
			c0.5-0.3,1.1-0.5,1.6-0.7c1-0.3,1.9-0.1,2.8,0.2C76.1,32.1,77.8,32.4,79.6,32.9z"/>
	</g>
	<g>
		<path class="st1" d="M192,76.5c0.5,0,1,0,1.4,0.1c0.5,0,0.7-0.2,0.7-0.7c0-2.4,0-4.9,0.1-7.3c0-0.6,0-1.3,0-2c-0.8,0-1.5,0-2.2,0
			c-0.5,0-0.8,0.2-1,0.7c-0.3,0.8-0.6,1.6-0.9,2.4c-0.5,1.3-1,2.7-1.6,4c-0.5-1.8-1.1-3.5-1.6-5.2c-0.6-1.9-0.6-1.9-2.7-1.9
			c-0.5,0-0.7,0.2-0.8,0.7c-0.1,1.4-0.2,2.9-0.3,4.3c-0.1,1.6-0.3,3.2-0.4,5c0.4,0,0.6,0,0.9,0c0.9,0.1,1.1-0.2,1.1-1.1
			c0-2.1,0.2-4.2,0.3-6.3c0.7,2.2,1.4,4.3,1.9,6.5c0.3,1.2,1,0.8,1.7,0.9c0.7,0.1,0.7-0.4,0.9-0.8c0.8-2.2,1.7-4.5,2.5-6.7
			c0,1.3,0,2.5,0,3.7C192,74,192,75.2,192,76.5z"/>
	</g>
	<g>
		<path class="st1" d="M177.5,66.6c-0.5,0-1,0-1.5,0c-0.6-0.1-0.8,0.2-0.8,0.8c0,1.5-0.1,3-0.2,4.5c0,0.6-0.1,1.3-0.3,1.9
			c-0.3,1.1-1.2,1.5-2.8,1.3c-1-0.1-1.6-0.7-1.6-1.8c0-0.5,0-1,0-1.4c0.1-1.7,0.2-3.4,0.2-5.2c-0.7,0-1.3,0-1.9,0
			c-0.2,0-0.4,0.3-0.5,0.5c-0.1,2.1-0.3,4.2-0.3,6.2c0,1.6,0.7,2.5,2.2,3c1.6,0.5,3.2,0.5,4.8,0c1.4-0.5,2.2-1.5,2.3-3
			c0.1-1.4,0.1-2.9,0.2-4.3C177.5,68.3,177.5,67.5,177.5,66.6z"/>
	</g>
	<g>
		<path class="st1" d="M141.8,72.1c0.3-0.1,0.5-0.2,0.8-0.3c1.3-0.5,2-1.6,1.9-2.9c-0.1-1.2-1-2.1-2.4-2.3c-0.3,0-0.6-0.1-0.9-0.1
			c-1.1,0-2.3,0.1-3.4,0c-0.8-0.1-1.1,0.2-1.1,1c0,2.4-0.1,4.8-0.2,7.3c-0.1,1.7-0.1,1.6,1.4,1.7c0.6,0,0.8-0.2,0.8-0.8
			c0-1.1,0-2.2,0-3.3c0-1.4,0.1-2.8,0.1-4.4c0.9,0,1.6,0,2.2,0.1c0.4,0.1,1,0.4,1,0.7c0.1,0.5,0,1.2-0.3,1.5c-0.3,0.4-1,0.5-1.5,0.6
			c-0.3,0.1-0.6,0-1,0c0.8,1.8,1.6,3.4,2.4,5.1c0.1,0.2,0.3,0.3,0.4,0.4c0.7,0,1.3,0,2.1,0c-0.5-0.9-0.9-1.6-1.3-2.3
			C142.6,73.5,142.2,72.8,141.8,72.1z"/>
	</g>
	<g>
		<path class="st1" d="M144.3,76.6c0.6,0,1.1-0.1,1.5,0c0.7,0.1,1.1-0.1,1.4-0.8c0.4-0.9,0.7-2.1,1.4-2.5c0.8-0.5,2-0.1,3-0.2
			c0,0,0.1,0,0.1,0c0.3,0.2,0.7,0.3,0.8,0.6c0.3,0.7,0.5,1.5,0.8,2.3c0.1,0.2,0.3,0.5,0.4,0.6c0.7,0.1,1.4,0,2.1,0
			c-0.1-0.3-0.1-0.5-0.2-0.6c-0.9-2.5-1.8-5-2.7-7.5c-0.6-1.8-0.6-1.7-2.4-1.8c-0.7,0-1,0.2-1.3,0.8c-0.8,1.6-1.7,3.3-2.5,4.9
			C145.9,73.6,145.1,75,144.3,76.6z"/>
	</g>
	<g>
		<path class="st1" d="M206,76.6c-0.1-0.4-0.2-0.6-0.2-0.8c-0.9-2.5-1.8-4.9-2.7-7.4c-0.6-1.7-0.6-1.7-2.4-1.8c-0.6,0-1,0.1-1.3,0.7
			c-1.5,2.9-3,5.8-4.6,8.8c-0.1,0.1-0.1,0.3-0.1,0.5c0.6,0,1,0,1.5,0c0.6,0.1,1-0.1,1.2-0.7c0.3-0.8,0.7-1.5,1.1-2.3
			c0.1-0.2,0.4-0.4,0.6-0.5c3.1-0.4,3.3-0.3,4.3,2.6c0.1,0.2,0.1,0.3,0.2,0.5c0.1,0.1,0.2,0.3,0.3,0.3
			C204.6,76.6,205.2,76.6,206,76.6z"/>
	</g>
	<g>
		<path class="st1" d="M135.4,76.6c-0.1-0.4-0.2-0.7-0.3-0.9c-0.9-2.4-1.8-4.9-2.7-7.3c-0.6-1.8-0.6-1.7-2.4-1.8
			c-0.7,0-1,0.2-1.3,0.8c-0.8,1.7-1.8,3.4-2.6,5.1c-0.7,1.3-1.4,2.6-2.1,4.1c0.6,0,1-0.1,1.4,0c0.8,0.2,1.2-0.2,1.5-0.8
			c0.4-0.9,0.7-2,1.4-2.5c0.7-0.4,1.9-0.2,2.9-0.1c0.3,0,0.7,0.3,0.8,0.6c0.3,0.7,0.5,1.5,0.8,2.2c0.1,0.2,0.4,0.6,0.6,0.6
			C134,76.6,134.7,76.6,135.4,76.6z"/>
	</g>
	<g>
		<path class="st1" d="M255,76.6c-0.1-0.4-0.2-0.7-0.3-0.9c-0.9-2.4-1.8-4.9-2.6-7.3c-0.6-1.7-0.6-1.7-2.4-1.8
			c-0.7,0-1.1,0.2-1.4,0.8c-1.4,2.8-2.9,5.5-4.3,8.3c-0.1,0.2-0.2,0.5-0.4,0.9c0.5,0,0.9-0.1,1.3-0.1c1,0.3,1.5-0.2,1.7-1.1
			c0.5-1.9,1.6-2.8,3.7-2.4c0.1,0,0.1,0,0.2,0c0.9-0.2,1.3,0.2,1.5,1c0.1,0.6,0.4,1.2,0.6,1.8c0.1,0.2,0.4,0.5,0.6,0.6
			C253.7,76.7,254.3,76.6,255,76.6z"/>
	</g>
	<g>
		<path class="st1" d="M58.6,70.7c0-0.6,0-1.1,0-1.6c0-0.7,0.2-0.9,0.9-0.9c1.1,0.1,2.2,0,3.3,0.1c0.6,0,0.9-0.2,0.9-0.8
			c0-0.3,0-0.5,0-0.9c-2.2,0-4.3,0-6.3,0c-0.7,0-0.9,0.3-0.9,0.9c-0.1,2-0.1,3.9-0.2,5.9c0,1-0.1,2.1-0.2,3.2c2.5,0,4.8,0,7.3,0
			c0-0.6,0.1-1.1,0.1-1.7c-1.7,0-3.3,0-4.9,0c0-0.7,0-1.3,0-1.9c0-0.5,0.3-0.8,0.8-0.7c0.9,0,1.9,0,2.8,0c0.7,0,0.8-0.3,0.8-0.9
			c0-0.7-0.3-0.7-0.8-0.7C60.9,70.7,59.8,70.7,58.6,70.7z"/>
	</g>
	<g>
		<path class="st1" d="M116.7,76.6c0.4,0,0.7,0,0.9,0c1.2,0,1.2,0,1.2-1.2c0-2.1,0.1-4.2,0.2-6.3c0-0.6,0.2-0.8,0.8-0.8
			c0.4,0,0.9,0,1.3,0c0.8,0.1,1.2,0.8,0.9,1.5c-0.2,0.7-0.8,1-1.5,1c-0.4,0-0.8,0-1.2,0c0,1.6,0.3,1.8,1.8,1.6c0.2,0,0.3,0,0.5-0.1
			c1.6-0.3,2.8-1.8,2.6-3.3c-0.1-1.7-1.1-2.5-3.1-2.5c-1.2,0-2.3,0-3.5,0c-0.6,0-0.7,0.2-0.7,0.8c0,0.7,0,1.5-0.1,2.2
			C116.9,71.8,116.8,74.1,116.7,76.6z"/>
	</g>
	<g>
		<path class="st1" d="M222.7,68.4c0-0.3,0-0.5,0-0.7c0.1-0.8-0.2-1.2-1-1.2c-1.1,0-2.2-0.1-3.3,0.1c-2.5,0.4-4,2.3-4.2,4.9
			c-0.1,2.4,1.1,4.3,3.4,4.9c1,0.3,2.2,0.2,3.2,0.2c1.5,0,1.6-0.3,1.5-1.9c-0.5,0.1-1,0.2-1.5,0.3c-0.5,0.1-1.1,0.1-1.6,0
			c-1.4-0.1-2.5-1-2.7-2.3c-0.6-2.9,1.4-5,4.3-4.6C221.5,68.2,222.1,68.3,222.7,68.4z"/>
	</g>
	<g>
		<path class="st1" d="M213,68.4c-0.2-0.7,0.3-1.5-0.7-1.7c-1.2-0.3-2.4-0.4-3.6,0c-1.9,0.7-2.4,2.6-1,4c0.8,0.8,1.6,1.5,2.5,2.3
			c0.4,0.4,1,0.8,0.6,1.3c-0.3,0.4-0.9,0.7-1.4,0.7c-0.9,0-1.8-0.2-2.7-0.3c-0.3,1.4-0.1,1.8,1.3,1.9c0.9,0.1,1.7,0.1,2.6,0
			c1.2-0.1,2.1-0.7,2.5-1.9c0.4-1.1-0.2-2-1-2.7c-0.8-0.7-1.6-1.3-2.4-2c-0.3-0.3-0.5-0.8-0.4-1.1c0.1-0.3,0.5-0.6,0.9-0.8
			c0.4-0.1,0.9-0.1,1.4-0.1C212,68.1,212.4,68.3,213,68.4z"/>
	</g>
	<g>
		<path class="st1" d="M166.3,68.3c0.3-1.3,0.1-1.6-1-1.7c-0.9-0.1-1.9-0.1-2.7,0c-2.2,0.5-2.8,2.7-1.2,4.2c0.8,0.8,1.7,1.4,2.4,2.2
			c0.3,0.3,0.7,1,0.5,1.2c-0.2,0.4-0.8,0.7-1.3,0.7c-0.9,0-1.9-0.2-2.8-0.3c-0.2,1.5,0,1.8,1.5,1.9c0.8,0.1,1.6,0.1,2.3,0
			c1.2-0.1,2.1-0.7,2.5-1.8c0.4-1.2-0.2-2.1-1-2.8c-0.8-0.7-1.6-1.3-2.4-2c-0.7-0.7-0.5-1.5,0.4-1.8c0.5-0.1,1-0.1,1.5-0.1
			C165.5,68.1,165.9,68.3,166.3,68.3z"/>
	</g>
	<g>
		<path class="st1" d="M241.2,68.3c0.9,0,1.7,0,2.4,0c0.8,0,0.6-0.6,0.7-1c0.1-0.5-0.1-0.7-0.6-0.7c-2.4,0-4.8,0-7.2,0
			c-0.2,0-0.5,0.3-0.6,0.6c-0.1,0.3,0,0.7,0,1.1c1.1,0,2.1,0,3.1,0c0,0.2,0,0.3,0,0.4c-0.1,2.4-0.2,4.7-0.4,7.1
			c0,0.3-0.2,0.8,0.4,0.8c1.8,0.2,1.9,0.1,1.9-1.7c0-0.2,0-0.3,0-0.5C241,72.4,241.1,70.4,241.2,68.3z"/>
	</g>
	<g>
		<path class="st3" d="M5.1,15.7c1.6-0.2,3.2-0.3,4.8-0.5c4.7-0.6,9.3-1.4,14-2c3.5-0.4,6.9-1,10.4-0.7c2,0.2,3.9,0.6,5.8,1
			c2.2,0.5,4.4,1.2,6.7,1.8c0.4,0.1,0.8,0.3,1.1,0.6c0.5,0.3,0.9,0.8,1.4,1c2.3,1.2,3.6,3.3,4.6,5.5c0.4,0.9,0.4,2,0.6,3
			c0.8,3.1-0.2,6-1,8.9c0,0.1-0.1,0.3-0.2,0.4c-2.3,3.2-4.8,6.1-8.4,7.8c-0.8,0.4-1.9,0.3-2.9,0.4c-3.2,0.4-6.4,0.8-9.6,1.2
			c-0.7,0.1-1.4,0.2-2.4,0.3c0,1.3,0,2.6,0,4c0,2.8-0.1,5.5-0.2,8.3c0,0.9-0.7,1.5-1.5,1.5c-4,0.2-8,0.4-12,0.5c-1.2,0-2.4,0-3.5,0
			c-1.1,0-1.4-0.4-1.2-1.5c0.9-5.8,1.8-11.6,2.6-17.4c0.6-4,1.2-8.1,1.8-12.1c0.2-1.2-0.2-2.2-0.9-3.1c-1.3-1.8-3-2.6-5.2-2.4
			c-1.5,0.1-2.9-0.1-4-1.2c-0.7-0.8-1.3-1.5-1.2-2.7C5.1,17.4,5,16.6,5.1,15.7z M30.7,23.8c-0.1,2.7-0.2,5.5-0.2,8.2
			c0,0.6,0.9,1.3,1.5,1c1.8-0.7,3.5-1.6,4.8-3.1c0.6-0.7,0.9-1.6,0.4-2.6c-0.4-0.8-0.8-1.7-1.3-2.5c-0.2-0.3-0.5-0.5-0.8-0.7
			C33.7,23.3,32.3,23.5,30.7,23.8z"/>
		<path class="st1" d="M14.6,59.3c-0.6,0-1.2,0-1.8,0c-0.4,0-1.1-0.1-1.4-0.5c-0.4-0.5-0.3-1.1-0.3-1.6c0.8-5.5,1.7-11.2,2.6-17.4
			c0.7-4.6,1.3-8.4,1.8-12.1c0.1-0.9-0.1-1.8-0.8-2.8c-1.1-1.6-2.7-2.3-4.8-2.2c-1.2,0.1-3,0.1-4.4-1.4c-0.8-0.8-1.5-1.7-1.3-3.2
			c0.1-0.5,0.1-1.1,0.1-1.7c0-0.3,0-0.6,0-0.8l0-0.4l0.4,0c0.5-0.1,1-0.1,1.5-0.1c1.1-0.1,2.2-0.2,3.3-0.3c2-0.3,4-0.6,5.9-0.8
			c2.7-0.4,5.4-0.8,8.1-1.1c0.3,0,0.7-0.1,1-0.1c3.1-0.4,6.3-0.8,9.5-0.6c2,0.2,3.9,0.6,5.9,1.1c1.9,0.4,3.7,1,5.5,1.5
			c0.4,0.1,0.8,0.2,1.2,0.3c0.5,0.1,0.9,0.4,1.3,0.6c0.2,0.2,0.4,0.3,0.6,0.5c0.3,0.2,0.5,0.4,0.8,0.5c2.1,1.1,3.6,3,4.8,5.8
			c0.3,0.6,0.4,1.3,0.5,2c0.1,0.4,0.1,0.8,0.2,1.1c0.7,2.8,0,5.5-0.7,8c-0.1,0.4-0.2,0.7-0.3,1.1c0,0.1-0.1,0.4-0.2,0.6
			c-1.3,1.9-2.5,3.3-3.8,4.6c-1.5,1.5-3.1,2.6-4.9,3.4c-0.7,0.3-1.4,0.3-2.2,0.4c-0.3,0-0.6,0-0.9,0.1l-2.5,0.3
			c-2.3,0.3-4.7,0.6-7.1,0.9c-0.5,0.1-1,0.1-1.5,0.2c-0.1,0-0.3,0-0.4,0c0,0.3,0,0.5,0,0.8c0,0.9,0,1.8,0,2.7c0,2.3-0.1,4.7-0.2,7
			l0,1.3c0,1.2-0.9,2-2,2c-1.6,0.1-3.2,0.1-4.8,0.2c-2.4,0.1-4.8,0.2-7.2,0.3C15.8,59.3,15.2,59.3,14.6,59.3z M10.6,21.7
			c2.1,0,3.8,0.9,5.1,2.6c0.8,1.2,1.1,2.3,1,3.5c-0.5,3.6-1.1,7.5-1.8,12.1c-0.9,6.2-1.8,11.9-2.6,17.4c-0.1,0.5,0,0.7,0,0.7
			c0,0,0.2,0.1,0.7,0.2c1.2,0,2.3,0,3.5,0c2.4-0.1,4.8-0.2,7.2-0.3c1.6-0.1,3.2-0.1,4.8-0.2c0.6,0,1-0.4,1-1l0-1.3
			c0.1-2.3,0.1-4.6,0.2-7c0-0.9,0-1.8,0-2.7c0-0.4,0-0.8,0-1.2V44l0.5-0.1c0.3,0,0.6-0.1,0.9-0.1c0.5-0.1,1-0.1,1.5-0.2
			c2.4-0.3,4.8-0.6,7.1-0.9l2.5-0.3c0.3,0,0.7-0.1,1-0.1c0.7,0,1.3-0.1,1.8-0.3c3.8-1.8,6.3-4.9,8.2-7.7c0,0,0-0.1,0.1-0.2
			c0.1-0.4,0.2-0.7,0.3-1.1c0.7-2.5,1.3-4.9,0.7-7.5c-0.1-0.4-0.2-0.8-0.2-1.3c-0.1-0.6-0.2-1.2-0.4-1.7c-1.1-2.6-2.5-4.2-4.4-5.3
			c-0.3-0.2-0.6-0.4-0.9-0.6c-0.2-0.2-0.4-0.3-0.6-0.4c-0.3-0.2-0.6-0.4-1-0.5c-0.4-0.1-0.8-0.2-1.2-0.3c-1.8-0.5-3.6-1-5.5-1.5
			c-1.9-0.5-3.8-0.9-5.7-1c-3.1-0.3-6.3,0.2-9.3,0.6c-0.3,0-0.7,0.1-1,0.1c-2.7,0.4-5.5,0.7-8.1,1.1C14,15.2,12,15.5,10,15.7
			c-1.1,0.1-2.2,0.2-3.3,0.3c-0.4,0-0.7,0.1-1.1,0.1c0,0.1,0,0.2,0,0.4c0,0.6-0.1,1.2-0.2,1.8c-0.1,0.9,0.3,1.5,1,2.3
			c0.8,0.9,1.9,1.2,3.5,1.1C10.2,21.7,10.4,21.7,10.6,21.7z M31.7,33.6c-0.3,0-0.7-0.1-1-0.4c-0.5-0.3-0.8-0.8-0.7-1.3
			c0-2,0.1-4,0.2-6c0-0.7,0-1.5,0.1-2.2l0-0.4l0.4-0.1c1.6-0.3,3.3-0.6,4.8,0.5c0.3,0.2,0.7,0.5,0.9,0.9c0.3,0.5,0.6,1.1,0.8,1.6
			c0.2,0.3,0.3,0.6,0.5,0.9c0.6,1,0.4,2.2-0.5,3.2c-1.2,1.3-2.7,2.3-5,3.2C32,33.6,31.8,33.6,31.7,33.6z M31.2,24.3
			c0,0.6,0,1.2-0.1,1.8c-0.1,2-0.1,4-0.2,6c0,0.1,0.1,0.2,0.3,0.4c0.2,0.2,0.4,0.2,0.5,0.2c2.1-0.8,3.5-1.7,4.6-2.9
			c0.6-0.7,0.7-1.3,0.3-2c-0.2-0.3-0.3-0.6-0.5-0.9c-0.3-0.5-0.5-1-0.8-1.5c-0.1-0.2-0.4-0.4-0.6-0.6C33.7,23.9,32.5,24.1,31.2,24.3
			z"/>
	</g>
	<g>
		<path class="st3" d="M156.9,49.6c-2.9,0.3-5.8,0.6-8.6,0.9c-0.4,0-0.8,0.1-1.2,0.2c-0.6,0.2-0.9,0.1-0.9-0.6
			c-0.2-3.5-0.5-7.1-0.7-10.6c0-0.3,0.1-0.6,0.1-0.9c0.2-1.4-0.6-2.3-1.5-3.1c-0.3-0.3-1-0.5-1.6-0.5c-1.1,0-2.2,0-3.2,0.2
			c-1.5,0.3-1.9,1.6-2.5,2.7c-0.1,0.2-0.1,0.6-0.1,0.9c0,3.1,0,6.2,0,9.3c0,0.3,0,0.6,0,1c-1.5,0.2-3,0.4-4.5,0.6
			c-2.4,0.3-4.7,0.6-7.1,1c-0.6,0.1-0.6-0.3-0.7-0.7c-0.3-2.3-0.6-4.7-1-7c-0.5-2.8-0.6-5.6-0.4-8.3c0.1-1.3,0.8-2.6,1.4-3.7
			c1.2-2,2.6-3.9,3.8-5.9c0.3-0.4,0.4-1,0.4-1.5c-0.7-3.8-1.3-7.5-2.1-11.2c-0.3-1.2-0.8-2.4-1.3-3.6c0.4-0.2,0.8-0.4,1.2-0.6
			c2.5-1,5-2.1,7.5-3.1c1.8-0.7,3.4,0.2,3.4,2.1c0,2.7,0,5.4,0,8.1c0,2.5,0,5,0,7.6c1.3,0,2.5,0,3.6,0c1,0,2.1,0,3.1,0.1
			c0.9,0.1,1.2-0.3,1.2-1.1c0.1-1.7,0.2-3.3,0.3-5c0.1-2.4,0.3-4.8,0.5-7.2c0-0.3,0.3-0.7,0.6-0.9c2.8-1.3,5.5-2.6,8.3-3.7
			c0.7-0.3,1.6-0.1,2.4-0.1c0.2,0,0.5,0.3,0.5,0.6c0.5,1.8,1.2,3.5,1.3,5.3c0.3,4.9-0.1,9.8-0.9,14.6c-0.5,2.6-1.4,5-2.1,7.6
			c-0.5,1.9-1,3.8-1.5,5.7c-0.1,0.3,0,0.7,0,1.1c0.7,3.1,1.5,6.1,2.3,9.2C156.8,49.1,156.9,49.3,156.9,49.6z"/>
		<path class="st1" d="M146.7,51.4c-0.2,0-0.4,0-0.5-0.2c-0.4-0.3-0.4-0.7-0.5-1c-0.1-2.1-0.3-4.3-0.4-6.4c-0.1-1.4-0.2-2.8-0.3-4.1
			c0-0.3,0-0.6,0.1-0.8c0-0.1,0-0.2,0-0.2c0.2-1.1-0.5-1.9-1.3-2.7c-0.2-0.2-0.7-0.3-1.2-0.3c-1.2,0-2.2,0.1-3.1,0.2
			c-1,0.2-1.4,1-1.9,1.9c-0.1,0.2-0.2,0.3-0.3,0.5c-0.1,0.1-0.1,0.4-0.1,0.6c0,0,0,0.1,0,0.1c0,2.4,0,4.9,0,7.3c0,0.7,0,1.4,0,2v1.5
			l-0.5,0.1c-0.5,0.1-0.9,0.1-1.4,0.2c-1,0.1-2,0.3-3,0.4l-1.1,0.1c-2,0.3-4,0.5-6,0.8c-0.6,0.1-0.9-0.2-1.1-0.4
			c-0.2-0.2-0.2-0.5-0.2-0.8c-0.1-0.7-0.2-1.4-0.3-2c-0.2-1.6-0.4-3.3-0.7-4.9c-0.5-2.7-0.6-5.6-0.4-8.5c0.1-1.4,0.8-2.7,1.5-4
			c0.7-1.2,1.5-2.4,2.3-3.5c0.5-0.8,1.1-1.6,1.6-2.4c0.2-0.3,0.3-0.8,0.3-1.1c-0.6-3.4-1.3-7.3-2.1-11.2c-0.2-0.8-0.5-1.6-0.8-2.4
			c-0.2-0.4-0.3-0.8-0.5-1.2l-0.2-0.5l0.4-0.2c0.1-0.1,0.3-0.1,0.4-0.2c0.3-0.1,0.6-0.3,0.8-0.4c1.1-0.5,2.2-0.9,3.3-1.4
			c1.4-0.6,2.8-1.2,4.2-1.8c1-0.4,2.1-0.4,2.9,0.2c0.8,0.5,1.2,1.4,1.2,2.5c0,1.9,0,3.9,0,5.8c0,0.8,0,1.6,0,2.3c0,1.7,0,3.4,0,5.2
			l0,1.9c0.2,0,0.4,0,0.6,0c0.9,0,1.7,0,2.5,0c0.2,0,0.4,0,0.5,0c0.9,0,1.7,0,2.6,0.1c0.2,0,0.4,0,0.5-0.1c0.1-0.1,0.1-0.3,0.1-0.5
			c0-0.8,0.1-1.6,0.1-2.3c0-0.9,0.1-1.7,0.1-2.6l0-0.3c0.1-2.3,0.3-4.6,0.4-6.9c0-0.5,0.4-1.1,0.9-1.3l0.1,0
			c2.7-1.2,5.5-2.5,8.2-3.7c0.7-0.3,1.4-0.2,2.1-0.2c0.2,0,0.3,0,0.5,0c0.5,0,0.9,0.6,1,1c0.1,0.5,0.3,1,0.4,1.4
			c0.4,1.3,0.8,2.6,0.9,3.9c0.3,4.6,0,9.5-1,14.8c-0.3,1.7-0.8,3.4-1.4,5.1c-0.3,0.8-0.5,1.7-0.8,2.5c-0.5,1.8-1,3.7-1.5,5.7
			c-0.1,0.2,0,0.5,0,0.8c0.5,2.2,1.1,4.5,1.7,6.7c0.2,0.8,0.4,1.6,0.6,2.5c0,0.1,0.1,0.3,0.1,0.4c0,0.1,0,0.2,0.1,0.3l0.1,0.6
			l-0.6,0.1c-0.7,0.1-1.4,0.2-2.2,0.2c-2.2,0.2-4.3,0.5-6.4,0.7c-0.5,0-0.8,0.1-1.1,0.2C147.1,51.3,146.9,51.4,146.7,51.4z
			 M142.3,34.5c0.1,0,0.1,0,0.2,0c0.3,0,1.3,0.1,1.9,0.6c0.9,0.9,1.8,2,1.6,3.6c0,0.1,0,0.2,0,0.3c0,0.2-0.1,0.4-0.1,0.6
			c0.1,1.4,0.2,2.8,0.3,4.1c0.2,2.1,0.3,4.3,0.4,6.5c0,0.1,0,0.1,0,0.2c0,0,0.1,0,0.2-0.1c0.4-0.1,0.8-0.2,1.3-0.3
			c2.1-0.2,4.2-0.5,6.4-0.7c0.5-0.1,1-0.1,1.6-0.2c0,0,0-0.1,0-0.1c-0.2-0.8-0.4-1.6-0.6-2.5c-0.5-2.2-1.1-4.5-1.7-6.7
			c-0.1-0.3-0.2-0.8,0-1.3c0.5-2,1-3.9,1.5-5.7c0.2-0.9,0.5-1.7,0.8-2.6c0.5-1.6,1-3.3,1.3-4.9c1-5.2,1.3-10,0.9-14.5
			c-0.1-1.2-0.5-2.5-0.8-3.7c-0.1-0.5-0.3-1-0.4-1.5c0,0-0.1-0.1-0.1-0.2c-0.1,0-0.3,0-0.4,0c-0.6,0-1.2-0.1-1.6,0.1
			c-2.8,1.1-5.5,2.4-8.2,3.7l-0.1,0c-0.1,0-0.3,0.3-0.3,0.4c-0.2,2.3-0.3,4.6-0.4,6.9l0,0.3c0,0.9-0.1,1.8-0.1,2.6
			c0,0.8-0.1,1.6-0.1,2.4c0,0.6-0.2,1-0.5,1.3c-0.3,0.3-0.7,0.4-1.3,0.3c-0.8-0.1-1.7-0.1-2.5-0.1c-0.2,0-0.4,0-0.5,0
			c-0.8,0-1.6,0-2.5,0c-0.4,0-0.8,0-1.1,0h-0.5l0-2.9c0-1.8,0-3.5,0-5.2c0-0.8,0-1.6,0-2.3c0-1.9,0-3.8,0-5.8c0-0.7-0.3-1.3-0.8-1.6
			c-0.5-0.3-1.2-0.4-1.9-0.1c-1.4,0.6-2.8,1.2-4.2,1.8c-1.1,0.5-2.2,0.9-3.3,1.4c-0.3,0.1-0.5,0.2-0.8,0.3c0.1,0.2,0.2,0.5,0.3,0.7
			c0.3,0.9,0.7,1.7,0.9,2.6c0.8,3.9,1.5,7.9,2.1,11.3c0.1,0.7-0.2,1.4-0.4,1.9c-0.5,0.8-1.1,1.7-1.6,2.5c-0.8,1.1-1.5,2.3-2.2,3.5
			c-0.6,1.1-1.3,2.3-1.4,3.5c-0.2,2.8-0.1,5.6,0.4,8.2c0.3,1.7,0.5,3.4,0.8,5c0.1,0.7,0.2,1.4,0.3,2c0,0.1,0,0.2,0,0.3
			c0,0,0,0,0.1,0c2-0.3,4-0.6,6-0.8l1.1-0.1c1-0.1,2-0.3,3-0.4c0.3,0,0.6-0.1,1-0.1v-0.5c0-0.7,0-1.4,0-2c0-2.4,0-4.9,0-7.3
			c0,0,0-0.1,0-0.1c0-0.3,0-0.7,0.2-1.1c0.1-0.2,0.2-0.3,0.3-0.5c0.5-1,1.2-2.2,2.7-2.5C140.1,34.6,141.2,34.5,142.3,34.5z"/>
	</g>
	<g>
		<path class="st3" d="M220.4,16.3c4.7-0.7,9.3-1.4,13.9-2c1.7-0.2,3.3-0.5,5-0.6c4.1-0.1,8,0.7,11.6,2.4c2.4,1.1,4.5,3,5.2,5.7
			c0.6,2.3,0.7,4.7,0.1,7.2c-0.8,3.2-3,5.3-5.4,7.2c-1.3,1-2.7,1-4.1,1.1c-2.6,0.3-5.3,0.7-8.1,1c0,1.4,0,2.6,0,3.8
			c0,1.8-0.1,3.6-0.1,5.4c0,1.1-0.4,1.4-1.5,1.5c-2.4,0.1-4.7,0.2-7.1,0.3c-1.3,0.1-2.6,0.1-3.9,0.2c-0.8,0-1.1-0.4-1-1.2
			c0.4-3,0.8-6,1.3-9c0.7-4.5,1.3-8.9,2.2-13.4c0.4-2.1-1.6-4.9-4-4.7c-1.1,0.1-2.2,0.1-3.1-0.8c-0.7-0.7-1.1-1.5-1-2.5
			C220.4,17.3,220.4,16.8,220.4,16.3z M238.9,22.4c0,2.2,0,4.3,0,6.3c0,0.7,0.7,1.1,1.3,0.8c1-0.6,1.9-1.2,2.8-1.9
			c0.3-0.2,0.5-0.5,0.6-0.9c0.7-1.5-0.9-4.4-2.6-4.5C240.3,22.2,239.7,22.3,238.9,22.4z"/>
		<path class="st1" d="M226,50c-0.6,0-1-0.2-1.2-0.5c-0.2-0.2-0.4-0.6-0.3-1.3c0.1-0.9,0.3-1.9,0.4-2.8c0.3-2,0.6-4.1,0.9-6.2
			c0.1-0.8,0.3-1.7,0.4-2.5c0.5-3.6,1.1-7.3,1.8-10.9c0.2-0.9-0.2-2.1-1-2.9c-0.4-0.5-1.3-1.2-2.5-1.2c-1.1,0.1-2.5,0.2-3.6-1
			c-0.6-0.7-1.3-1.6-1.1-3c0.1-0.3,0.1-0.7,0.1-1c0-0.2,0-0.3,0-0.5l0-0.4l0.4-0.1c1.3-0.2,2.7-0.4,4-0.6c3.2-0.5,6.6-1,9.9-1.4
			c0.2,0,0.5-0.1,0.7-0.1c1.4-0.2,2.9-0.4,4.4-0.5c4.1-0.1,8,0.7,11.9,2.5c2.9,1.3,4.8,3.4,5.5,6c0.7,2.6,0.7,5.1,0.1,7.4
			c-0.4,1.6-1.1,3-2.2,4.3c-1.1,1.3-2.4,2.4-3.4,3.2c-1.2,0.9-2.5,1.1-3.7,1.2c-0.2,0-0.5,0-0.7,0.1c-1.9,0.2-3.7,0.4-5.6,0.7
			c-0.7,0.1-1.3,0.2-2,0.2c0,0.3,0,0.5,0,0.8c0,0.9,0,1.7,0,2.6c0,1.1,0,2.2-0.1,3.2c0,0.7,0,1.4,0,2.2c0,1.4-0.6,1.9-2,2
			c-2,0.1-4,0.2-5.9,0.3c-0.4,0-0.8,0-1.2,0.1c-0.5,0-1.1,0.1-1.6,0.1C227.6,49.9,226.8,50,226,50C226,50,226,50,226,50z
			 M224.6,20.7c1.1,0,2.3,0.5,3.1,1.5c1,1.1,1.5,2.6,1.2,3.8c-0.7,3.6-1.2,7.3-1.8,10.9c-0.1,0.8-0.3,1.7-0.4,2.5
			c-0.3,2-0.6,4.1-0.9,6.2c-0.1,0.9-0.3,1.9-0.4,2.8c0,0.2,0,0.4,0.1,0.5c0.1,0.1,0.2,0.1,0.4,0.1c0.7,0,1.5-0.1,2.3-0.1
			c0.5,0,1.1-0.1,1.6-0.1c0.4,0,0.8,0,1.2-0.1c1.9-0.1,3.9-0.2,5.9-0.3c0.4,0,0.7-0.1,0.8-0.2c0.1-0.1,0.2-0.4,0.2-0.8
			c0-0.7,0-1.5,0-2.2c0-1.1,0.1-2.2,0.1-3.2c0-0.8,0-1.7,0-2.6c0-0.4,0-0.8,0-1.2v-0.5l0.5-0.1c0.8-0.1,1.6-0.2,2.4-0.3
			c1.9-0.2,3.8-0.5,5.6-0.7c0.2,0,0.5-0.1,0.7-0.1c1.1-0.1,2.2-0.2,3.1-0.9c2.6-2,4.5-4,5.2-7c0.6-2.2,0.5-4.4-0.1-6.9
			c-0.7-2.9-3.1-4.5-4.9-5.3c-3.7-1.7-7.5-2.5-11.4-2.4c-1.4,0-2.8,0.2-4.2,0.4c-0.2,0-0.5,0.1-0.7,0.1c-3.3,0.5-6.6,1-9.9,1.4
			c-1.2,0.2-2.4,0.3-3.6,0.5c0,0,0,0,0,0c0,0.4,0,0.8-0.1,1.1c-0.1,0.8,0.1,1.4,0.8,2.1c0.8,0.8,1.7,0.7,2.7,0.6
			C224.4,20.7,224.5,20.7,224.6,20.7z M239.7,30.1c-0.2,0-0.5-0.1-0.7-0.2c-0.4-0.2-0.7-0.7-0.7-1.3c0-1.5,0-3,0-4.5
			c0-0.6,0-1.2,0-1.8v-0.5l0.5,0c0.3,0,0.5,0,0.8-0.1c0.5-0.1,1-0.1,1.4-0.1c0.9,0.1,1.9,0.8,2.6,2c0.7,1.2,0.8,2.4,0.4,3.3
			c-0.1,0.3-0.4,0.7-0.8,1.1c-1,0.7-1.8,1.4-2.8,1.9C240.2,30.1,240,30.1,239.7,30.1z M239.4,22.9c0,0.5,0,0.9,0,1.3
			c0,1.5,0,3,0,4.5c0,0.2,0.1,0.3,0.2,0.3c0.1,0,0.2,0.1,0.3,0c0.9-0.5,1.8-1.2,2.7-1.9c0.2-0.1,0.4-0.4,0.5-0.6
			c0.3-0.6,0.1-1.5-0.4-2.3c-0.5-0.8-1.2-1.4-1.8-1.4c-0.4,0-0.8,0-1.2,0.1C239.6,22.8,239.5,22.9,239.4,22.9z"/>
	</g>
	<g>
		<path class="st3" d="M76.3,11.8c3.3-1.6,6.6-3.2,10.4-3c0.7,0,1.4,0.2,2.1,0.5c3.5,1.3,7,1.8,10.6,0.7c1.7-0.5,3.3-1,5.1-1.6
			c1.1,3.2,1.9,6.6,1.7,10.2c-2.4,0.3-4.7,0.5-7.1,0.8c0,0.8,0,1.5,0,2.3c0,1.3,0.1,2.5,0.1,3.8c0.1,2.4-0.7,4.5-2.4,6.2
			c-0.2,0.2-0.3,0.6-0.4,0.9c-0.3,2.6,0.4,5,1.3,7.3c0.1,0.4,0.4,0.7,0.7,1c1,1.4,2.1,2.9,3.2,4.5c-1.3,0.3-2.4,0.6-3.5,0.9
			c-2.8,0.7-5.6,1.3-8.4,1.9c-0.6,0.1-0.8,0-0.9-0.5c-0.8-2.6-1.8-5.2-2.5-7.8c-0.8-3-0.6-5.9,1.2-8.6c0.9-1.3,1.3-2.8,1.3-4.3
			c0-1.6-1-2.9-1.9-4.2c-1-1.4-2.1-2-3.9-1.5c-1.6,0.4-3.3,0.5-4.9,0.6c-1.5,0.1-2.4-1.3-1.8-2.7c0.8-2.1,0.5-4.2,0.4-6.3
			C76.5,12.5,76.4,12.2,76.3,11.8z"/>
		<path class="st1" d="M89.4,48.8c-0.5,0-0.9-0.3-1.1-0.9c-0.3-0.8-0.5-1.6-0.8-2.4c-0.6-1.7-1.2-3.6-1.7-5.4
			c-0.9-3.3-0.5-6.4,1.3-9c0.8-1.2,1.2-2.6,1.2-4c0-1.3-0.7-2.3-1.5-3.5c-0.1-0.1-0.2-0.3-0.3-0.4c-0.9-1.3-1.8-1.7-3.4-1.3
			c-1.4,0.4-3,0.5-4.5,0.6c-0.2,0-0.4,0-0.6,0c-0.9,0-1.6-0.3-2.1-0.9c-0.5-0.7-0.6-1.6-0.3-2.5c0.6-1.7,0.5-3.4,0.4-5.3
			c0-0.3,0-0.5-0.1-0.8c0-0.2-0.1-0.4-0.1-0.6c0-0.1-0.1-0.3-0.1-0.4l-0.1-0.4l0.6-0.3c3.2-1.6,6.6-3.2,10.4-2.9
			c0.7,0,1.4,0.2,2.3,0.5c3.9,1.4,7.1,1.7,10.3,0.7c1.1-0.3,2.3-0.7,3.5-1.1l2.1-0.6l0.2,0.5c0.9,2.7,2,6.3,1.7,10.4l0,0.4l-7.1,0.8
			c0,0.1,0,0.2,0,0.2c0,0.5,0,1,0,1.5c0,0.9,0,1.8,0.1,2.7c0,0.4,0,0.7,0,1.1c0.1,2.6-0.8,4.8-2.6,6.6c-0.1,0.1-0.2,0.3-0.2,0.6
			c-0.3,2.6,0.5,5,1.3,7.1c0.1,0.2,0.2,0.4,0.4,0.7c0.1,0.1,0.1,0.2,0.2,0.3c0.7,1,1.5,2.1,2.3,3.2c0.3,0.4,0.6,0.8,0.9,1.3l0.5,0.6
			l-0.8,0.2c-0.4,0.1-0.8,0.2-1.2,0.3c-0.8,0.2-1.6,0.4-2.3,0.6C97.1,47,96,47.3,95,47.5c-1.7,0.4-3.4,0.8-5.2,1.2
			C89.6,48.7,89.5,48.8,89.4,48.8z M89.3,47.7c0,0,0.1,0,0.2,0c1.7-0.4,3.5-0.8,5.2-1.2c1.1-0.2,2.1-0.5,3.2-0.7
			c0.7-0.2,1.5-0.4,2.3-0.6c0.2,0,0.3-0.1,0.5-0.1c-0.2-0.2-0.3-0.4-0.5-0.6c-0.8-1.1-1.6-2.1-2.3-3.2c-0.1-0.1-0.1-0.2-0.2-0.2
			c-0.2-0.3-0.4-0.6-0.6-0.9c-0.8-2.2-1.7-4.8-1.3-7.6c0-0.2,0.1-0.8,0.5-1.2c1.6-1.6,2.4-3.4,2.3-5.8c0-0.4,0-0.7,0-1.1
			c0-0.9-0.1-1.8-0.1-2.7c0-0.5,0-1.1,0-1.6c0-0.2,0-0.5,0-0.7V19l7.1-0.8c0.2-3.5-0.7-6.6-1.5-9.1L103,9.5
			c-1.2,0.4-2.3,0.7-3.5,1.1c-1.8,0.5-3.6,0.7-5.6,0.6c-1.7-0.1-3.5-0.6-5.4-1.3c-0.7-0.3-1.4-0.4-2-0.5c-3.5-0.2-6.5,1.2-9.7,2.7
			c0.1,0.3,0.1,0.5,0.2,0.8c0,0.3,0,0.5,0.1,0.8c0.1,1.9,0.3,3.8-0.5,5.7c-0.2,0.5-0.2,1.1,0.1,1.5c0.3,0.3,0.7,0.5,1.2,0.5
			c0.2,0,0.4,0,0.6,0c1.4-0.1,2.9-0.2,4.2-0.5c1-0.3,1.9-0.3,2.6,0c0.7,0.3,1.3,0.8,1.9,1.7c0.1,0.1,0.2,0.3,0.3,0.4
			c0.8,1.2,1.7,2.5,1.7,4.1c0,1.7-0.5,3.3-1.4,4.6c-1.6,2.4-2,5.1-1.1,8.1c0.5,1.8,1.1,3.6,1.7,5.3c0.3,0.8,0.6,1.6,0.8,2.5
			C89.3,47.6,89.3,47.7,89.3,47.7z"/>
	</g>
	<g>
		<path class="st3" d="M267.9,36.9c-0.3-0.1-0.5-0.2-0.8-0.2c-1.5,0-2.5-1-3.3-2.1c-0.2-0.2-0.3-0.5-0.4-0.8c-0.7-2.1-0.5-4.2,0-6.2
			c0.2-1,0.5-1.9,0.6-2.9c0.1-1.4,0-2.9-0.9-4.1c-0.9-1.3-1.9-2.5-2.8-3.7c-0.2-0.3-0.4-0.7-0.7-1.2c0.7-0.1,1.3-0.2,1.8-0.2
			c2.8,0.5,5.5,1,8.3,1.5c1.7,0.3,1.8,0.4,2.1,2.1c0.5,3,1.1,6.1,1.6,9.1c0,0.2,0.1,0.4,0.2,0.9c1.2-1.9,2.3-3.7,3.4-5.4
			c1-1.5,1.9-3,2.9-4.5c0.2-0.2,0.5-0.4,0.8-0.4c3.6-0.1,7.1-0.2,10.7-0.3c0.3,0,0.7,0,1,0.1c1.7,0.5,2,1.5,1,3.1
			c-1.5,2.2-3,4.3-4.5,6.4c-1.1,1.5-2.3,3-3.5,4.5c-0.3,0.4-0.8,0.6-1.3,0.7c-1.8,0.5-3.6,0.8-5,2c-1.3,1.1-2.6,2.2-3.4,3.8
			c-2.2,4.6-4.5,9.1-6.8,13.7c-0.6,1.2-0.9,1.3-2.2,0.9c-2.2-0.5-4.4-1.1-6.6-1.6c-0.5-0.1-1.1-0.2-1.7-0.3c-1-0.3-1.2-0.9-0.6-1.7
			c2.2-2.8,4.4-5.7,6.5-8.5c1.1-1.4,2.1-2.9,3.2-4.4C267.8,37.2,267.8,37,267.9,36.9z"/>
		<path class="st1" d="M267.8,54.4c-0.3,0-0.7-0.1-1.1-0.2c-0.9-0.2-1.9-0.5-2.8-0.7c-1.2-0.3-2.5-0.6-3.7-0.9
			c-0.2-0.1-0.5-0.1-0.8-0.1c-0.3,0-0.6-0.1-0.9-0.2c-0.8-0.2-1.2-0.7-1.3-1c-0.1-0.3-0.1-0.9,0.4-1.5c0.9-1.2,1.8-2.4,2.7-3.6
			c1.2-1.6,2.5-3.3,3.8-4.9c0.8-1,1.6-2.1,2.3-3.1c0.2-0.3,0.5-0.7,0.7-1c-1.7-0.1-2.8-1.1-3.7-2.3c-0.2-0.3-0.3-0.6-0.4-0.8
			c0,0,0-0.1,0-0.1c-0.8-2.4-0.4-4.8,0-6.5c0-0.2,0.1-0.3,0.1-0.5c0.2-0.8,0.4-1.6,0.4-2.3c0.1-1.1,0-2.6-0.8-3.8
			c-0.5-0.7-1.1-1.4-1.6-2.1c-0.4-0.5-0.8-1.1-1.2-1.6c-0.2-0.2-0.3-0.5-0.5-0.8c-0.1-0.2-0.2-0.3-0.3-0.5l-0.4-0.7l0.8-0.1
			c0.2,0,0.4-0.1,0.6-0.1c0.4-0.1,0.9-0.1,1.3-0.1c2.3,0.4,4.6,0.8,6.8,1.3c0.5,0.1,1,0.2,1.5,0.3c0.9,0.2,1.4,0.3,1.8,0.7
			c0.4,0.4,0.5,1,0.7,1.9c0.3,1.8,0.7,3.7,1,5.5c0.2,1.1,0.4,2.1,0.6,3.2c0.1-0.2,0.3-0.4,0.4-0.7c0.8-1.3,1.5-2.5,2.3-3.7l0,0
			c0.9-1.5,1.9-3,2.9-4.5c0.3-0.4,0.8-0.6,1.2-0.7c3.6-0.1,7.2-0.2,10.7-0.3c0.4,0,0.8,0,1.2,0.1c1,0.3,1.6,0.8,1.8,1.5
			c0.2,0.7,0,1.5-0.6,2.4c-1.4,2-2.9,4.1-4.5,6.4c-1.1,1.5-2.3,3.1-3.5,4.5c-0.4,0.5-1.1,0.8-1.5,0.9c-0.3,0.1-0.6,0.2-0.8,0.2
			c-1.5,0.4-2.9,0.8-4,1.7c-1.2,1-2.5,2.1-3.3,3.6c-2.3,4.7-4.6,9.3-6.8,13.7c-0.3,0.7-0.6,1.1-1.1,1.3
			C268.2,54.4,268,54.4,267.8,54.4z M260.5,16c0.1,0.2,0.2,0.4,0.3,0.5c0.4,0.5,0.8,1.1,1.2,1.6c0.5,0.7,1.1,1.4,1.6,2.1
			c1,1.4,1.1,3.1,1,4.4c-0.1,0.9-0.3,1.7-0.5,2.5c0,0.2-0.1,0.3-0.1,0.5c-0.6,2.4-0.6,4.3,0,5.9c0,0.1,0,0.1,0.1,0.2
			c0.1,0.2,0.1,0.4,0.2,0.5c0.9,1.1,1.7,1.8,2.9,1.9c0.2,0,0.4,0.1,0.7,0.1c0.1,0,0.2,0.1,0.2,0.1l0.6,0.2l-0.3,0.6
			c0,0.1-0.1,0.1-0.1,0.1c-0.1,0.1-0.1,0.2-0.2,0.3c-0.3,0.4-0.6,0.8-0.9,1.2c-0.8,1-1.5,2.1-2.3,3.2c-1.3,1.7-2.5,3.3-3.8,4.9
			c-0.9,1.2-1.8,2.4-2.7,3.6c-0.2,0.3-0.2,0.5-0.2,0.5c0,0.1,0.2,0.2,0.5,0.3c0.2,0.1,0.5,0.1,0.8,0.1c0.3,0,0.6,0.1,0.9,0.1
			c1.2,0.3,2.5,0.6,3.7,0.9c0.9,0.2,1.9,0.5,2.8,0.7c0.5,0.1,0.8,0.2,1,0.1c0.1-0.1,0.3-0.3,0.6-0.8c2.2-4.3,4.5-9,6.8-13.7
			c0.9-1.7,2.3-2.9,3.5-4c1.3-1.1,2.9-1.5,4.4-1.9c0.3-0.1,0.6-0.1,0.8-0.2c0.4-0.1,0.8-0.3,1-0.6c1.2-1.4,2.3-2.9,3.4-4.4
			c1.7-2.3,3.1-4.4,4.5-6.4c0.3-0.4,0.6-1,0.5-1.5c-0.1-0.4-0.7-0.7-1.2-0.8c-0.2-0.1-0.5-0.1-0.8-0.1c-3.5,0.1-7.1,0.1-10.7,0.3
			c-0.1,0-0.4,0.1-0.4,0.2c-1,1.5-2,3-2.9,4.5l0,0c-0.8,1.2-1.5,2.4-2.3,3.6c-0.4,0.6-0.7,1.1-1.1,1.7l-0.6,1l-0.3-1.2
			c0-0.2-0.1-0.3-0.1-0.4c-0.1-0.2-0.1-0.3-0.1-0.5c-0.2-1.2-0.4-2.4-0.6-3.6c-0.3-1.8-0.7-3.7-1-5.5c-0.1-0.8-0.2-1.2-0.4-1.3
			c-0.2-0.2-0.6-0.3-1.3-0.4c-0.5-0.1-1-0.2-1.5-0.3c-2.2-0.4-4.5-0.9-6.8-1.3C261.1,15.9,260.9,15.9,260.5,16z"/>
	</g>
	<g>
		<path class="st3" d="M190.2,20.1c4-0.6,7.8-1,11.6-1.7c4.8-0.8,9.5-0.4,14,1.3c2.2,0.8,4.1,2.4,4.8,4.7c0.5,1.5,0.4,3.2,0.3,4.7
			c-0.4,3.6-2.8,5.7-5.7,7.4c-0.5,0.3-1.2,0.3-1.9,0.4c-2.5,0.3-5,0.6-7.7,0.9c0,1.6,0,3.2,0,4.8c0,0.9,0,1.8,0,2.7
			c0,0.7-0.4,1.1-1.2,1.2c-2.8,0.1-5.6,0.2-8.3,0.3c0,0-0.1,0-0.1,0c-2,0.1-2.1,0-1.8-2c0.6-4.2,1.2-8.5,1.9-12.7
			c0.2-1.4,0.5-2.7,0.8-4.1c0.3-2.2-1-3.8-3.2-4c-0.4,0-0.9-0.1-1.3-0.1c-1.5,0-2.4-1-2.3-2.6C190.1,20.9,190.1,20.5,190.2,20.1z
			 M205.9,25c0,1.7,0,3.4,0,5.1c0,0.5,0.5,1,1.1,0.6c0.8-0.4,1.6-0.9,2.3-1.4c0.4-0.3,0.8-0.9,0.8-1.4c0-1.8-1.6-3.1-3.4-3
			C206.5,24.9,206.3,25,205.9,25z"/>
		<path class="st1" d="M195.3,47.3c-0.7,0-1.1-0.1-1.4-0.4c-0.4-0.4-0.3-1.1-0.1-2.2c0.6-4.3,1.3-8.6,1.9-12.7
			c0.1-0.7,0.2-1.4,0.4-2.1c0.1-0.7,0.3-1.4,0.4-2c0.1-0.9,0-1.7-0.5-2.3c-0.5-0.6-1.2-1-2.2-1.1c-0.4,0-0.8-0.1-1.3-0.1
			c-0.9,0-1.6-0.3-2.1-0.9c-0.5-0.6-0.8-1.3-0.7-2.2c0-0.3,0-0.6,0-0.9c0-0.1,0-0.2,0-0.4l0-0.4l0.4-0.1c1.2-0.2,2.5-0.3,3.6-0.5
			c2.7-0.4,5.3-0.7,8-1.2c4.9-0.8,9.8-0.4,14.3,1.3c2.6,1,4.4,2.7,5.1,5c0.4,1.3,0.5,2.9,0.3,4.9c-0.4,4.1-3.4,6.3-5.9,7.8
			c-0.5,0.3-1.2,0.4-1.7,0.4c-0.1,0-0.2,0-0.3,0c-1.8,0.2-3.6,0.4-5.5,0.6c-0.6,0.1-1.1,0.1-1.7,0.2l0,0.9c0,1.1,0,2.2,0,3.3
			c0,0.3,0,0.5,0,0.8c0,0.6,0,1.3,0,2c0,1-0.6,1.6-1.7,1.7c-2.1,0.1-4.1,0.2-6.2,0.2l-2.2,0.1c0,0,0,0-0.1,0c0,0,0,0,0,0
			C195.8,47.3,195.5,47.3,195.3,47.3z M194.7,46.2c0.2,0.1,0.8,0.1,1.4,0c0,0,0,0,0.1,0c0,0,0,0,0,0l2.2-0.1c2-0.1,4.1-0.1,6.2-0.2
			c0.5,0,0.6-0.2,0.6-0.6c0-0.6,0-1.3,0-1.9c0-0.3,0-0.5,0-0.8c0-1.1,0-2.2,0-3.3l0-1.9l0.5-0.1c0.7-0.1,1.5-0.2,2.2-0.2
			c1.9-0.2,3.7-0.4,5.5-0.6c0.1,0,0.2,0,0.4,0c0.5,0,1-0.1,1.3-0.3c3.5-2,5.1-4.1,5.4-7c0.2-1.9,0.1-3.4-0.3-4.5
			c-0.6-2-2.2-3.5-4.5-4.3c-4.4-1.6-9-2.1-13.7-1.3c-2.6,0.4-5.2,0.8-8,1.2c-1,0.1-2.1,0.3-3.2,0.4c0,0.3,0,0.6,0,0.8
			c0,0.6,0.1,1.1,0.4,1.4c0.3,0.3,0.8,0.5,1.4,0.5c0.5,0,1,0,1.4,0.1c1.2,0.1,2.3,0.7,2.9,1.5c0.7,0.8,0.9,1.9,0.7,3.1
			c-0.1,0.7-0.2,1.4-0.4,2.1c-0.1,0.7-0.3,1.4-0.4,2.1c-0.6,4.1-1.3,8.4-1.9,12.7C194.7,45.4,194.6,46,194.7,46.2z M206.6,31.4
			c-0.2,0-0.4-0.1-0.6-0.2c-0.4-0.2-0.6-0.6-0.6-1.1c0-1.2,0-2.4,0-3.7c0-0.5,0-1,0-1.4v-0.5l0.5,0c0.1,0,0.3,0,0.4,0
			c0.2,0,0.3,0,0.5,0c1-0.1,2.1,0.2,2.8,0.9c0.7,0.7,1.1,1.6,1.1,2.6c0,0.7-0.5,1.4-1,1.8c-0.8,0.6-1.6,1.1-2.4,1.5
			C207,31.3,206.8,31.4,206.6,31.4z M206.5,25.5c0,0.3,0,0.7,0,1c0,1.2,0,2.4,0,3.6c0,0.1,0.1,0.2,0.1,0.2c0,0,0.1,0,0.2,0
			c0.8-0.4,1.6-0.8,2.3-1.4c0.3-0.3,0.6-0.7,0.6-1c0-0.7-0.3-1.3-0.8-1.8c-0.5-0.5-1.3-0.7-2-0.7C206.7,25.5,206.6,25.5,206.5,25.5z
			"/>
	</g>
	<g>
		<path class="st3" d="M171.1,51c-1.2,0-2.4,0-3.5,0c-1.6,0-3.2-0.1-4.8,0c-0.6,0-0.8-0.2-0.8-0.8c0.1-2,0.2-4,0.3-6
			c0.1-1.5,0.1-2.9,0.3-4.4c0-0.4,0.3-0.8,0.5-1.2c0.1-0.2,0.3-0.3,0.4-0.4c1.9-1.4,2.9-3.4,3.5-5.5c0.4-1.6,0.7-3.2,0.3-4.8
			c-0.3-1.1-0.5-2.2-0.7-3.3c0-0.3,0.2-0.8,0.4-1.1c1.7-1.5,3.4-3,5.2-4.5c0.6-0.5,1.3-0.8,1.9-1.2c0.7-0.3,2.1,0.5,2.7,1.4
			c1.2,1.8,1.8,3.8,2.4,5.8c1.3,3.9,2.6,7.7,4,11.6c0.6,1.4,1.5,2.8,2.4,4c0.8,1.2,1.8,2.4,2.8,3.5c0.6,0.8,0.5,1.9-0.4,2.4
			c-1.7,0.9-3.5,1.7-5.3,2.6c-0.5,0.2-0.7-0.1-0.9-0.4c-1-1.4-2-2.8-3-4.2c-0.4-0.6-0.8-0.8-1.6-0.7c-1.7,0.3-3.3,0.5-5,0.6
			c-0.6,0.1-0.8,0.2-0.8,0.8C171.4,47.3,171.2,49.1,171.1,51z M172.3,38.1c1.1-0.1,2-0.2,2.9-0.4c0.6-0.1,0.8-0.7,0.4-1.3
			c-0.6-1-1.2-1.9-1.8-2.9c-0.5-0.8-1-1.5-1.6-2.5C172.3,33.6,172.3,35.8,172.3,38.1z"/>
		<path class="st1" d="M168.9,51.6c-0.4,0-0.9,0-1.3,0c-0.6,0-1.2,0-1.8,0c-1,0-2,0-3,0c0,0,0,0,0,0c-0.4,0-0.8-0.1-1-0.4
			c-0.3-0.4-0.3-0.9-0.3-1c0.1-1.3,0.2-2.6,0.2-3.9c0-0.7,0.1-1.4,0.1-2.1c0-0.3,0-0.7,0.1-1c0.1-1.1,0.1-2.2,0.2-3.4
			c0-0.4,0.2-0.8,0.4-1.2c0-0.1,0.1-0.1,0.1-0.2c0.1-0.3,0.4-0.5,0.6-0.6l0,0c1.6-1.2,2.7-2.9,3.3-5.2c0.3-1.3,0.7-2.9,0.3-4.6
			c-0.3-1.2-0.5-2.3-0.7-3.4c-0.1-0.5,0.3-1.2,0.6-1.5c1.9-1.7,3.5-3.1,5.2-4.5c0.6-0.5,1.4-0.9,2.1-1.2c1-0.5,2.7,0.6,3.3,1.5
			c1.1,1.6,1.7,3.4,2.2,5.1c0.1,0.3,0.2,0.6,0.3,0.8c1.4,4.1,2.6,7.9,4,11.5c0.5,1.2,1.3,2.3,2,3.4c0.1,0.2,0.2,0.3,0.3,0.5
			c0.6,0.9,1.3,1.7,2,2.6c0.2,0.3,0.5,0.6,0.8,0.9c0.4,0.5,0.6,1.2,0.5,1.8c-0.1,0.6-0.5,1.1-1,1.4c-1,0.5-2.1,1.1-3.1,1.5
			c-0.7,0.3-1.5,0.7-2.2,1.1c-0.9,0.4-1.3-0.2-1.5-0.5c0,0,0,0,0-0.1c-0.2-0.3-0.4-0.6-0.6-0.9c-0.8-1.1-1.6-2.2-2.4-3.3
			c-0.3-0.5-0.6-0.6-1.1-0.5c-1.7,0.3-3.4,0.5-5.1,0.6c-0.2,0-0.2,0-0.3,0c0,0,0,0.1,0,0.2c-0.1,1.4-0.2,2.7-0.3,4.1
			c0,0.5-0.1,1.1-0.1,1.6l0,0.5h-0.5c-0.4,0-0.8,0-1.1,0C169.6,51.6,169.2,51.6,168.9,51.6z M163,50.5c0.9,0,1.8,0,2.7,0
			c0.6,0,1.2,0,1.8,0c0.8,0,1.6,0,2.4,0c0.2,0,0.4,0,0.7,0c0-0.4,0.1-0.7,0.1-1.1c0.1-1.3,0.2-2.7,0.2-4.1c0-0.8,0.4-1.2,1.3-1.3
			c1.6-0.1,3.3-0.3,5-0.6c0.9-0.2,1.6,0.1,2.1,0.9c0.8,1.1,1.6,2.2,2.4,3.3c0.2,0.3,0.4,0.6,0.6,0.9c0,0,0,0,0.1,0.1
			c0,0,0.1,0.1,0.1,0.1c0,0,0,0,0,0c0.7-0.4,1.5-0.7,2.2-1.1c1-0.5,2.1-1,3.1-1.5c0.3-0.2,0.5-0.4,0.5-0.6c0.1-0.3,0-0.7-0.3-0.9
			c-0.2-0.3-0.5-0.6-0.7-0.9c-0.7-0.8-1.4-1.7-2-2.6c-0.1-0.2-0.2-0.3-0.3-0.5c-0.8-1.2-1.6-2.3-2.1-3.7c-1.4-3.7-2.7-7.4-4-11.6
			c-0.1-0.3-0.2-0.6-0.3-0.9c-0.6-1.7-1.1-3.4-2.1-4.8c-0.6-0.8-1.7-1.3-2-1.2c-0.6,0.3-1.3,0.7-1.8,1.1c-1.6,1.3-3.3,2.8-5.2,4.4
			c-0.2,0.1-0.3,0.5-0.3,0.6c0.1,1,0.4,2.1,0.7,3.2c0.4,1.9,0.1,3.7-0.3,5.1c-0.7,2.5-1.9,4.5-3.7,5.8l0,0c-0.1,0.1-0.2,0.2-0.3,0.2
			c0,0.1-0.1,0.1-0.1,0.2c-0.1,0.3-0.3,0.6-0.3,0.8c-0.1,1.1-0.2,2.2-0.2,3.3c0,0.3,0,0.7-0.1,1c0,0.7-0.1,1.4-0.1,2.1
			c-0.1,1.3-0.1,2.6-0.2,3.9c0,0.1,0,0.2,0,0.2c0,0,0.1,0,0.2,0C162.8,50.5,162.9,50.5,163,50.5z M171.7,38.7v-9.4l1,1.5
			c0.2,0.3,0.4,0.6,0.5,0.9c0.4,0.6,0.7,1.1,1,1.6c0.6,0.9,1.2,1.9,1.8,2.9c0.3,0.5,0.3,1,0.2,1.4c-0.2,0.4-0.5,0.6-0.9,0.7
			c-0.7,0.2-1.3,0.2-2,0.3c-0.3,0-0.6,0.1-0.9,0.1L171.7,38.7z M172.8,32.9v4.6c0.1,0,0.2,0,0.4,0c0.7-0.1,1.3-0.1,1.9-0.3
			c0.1,0,0.2-0.1,0.2-0.1c0-0.1,0-0.2-0.1-0.4c-0.6-1-1.2-2-1.8-2.9C173.2,33.5,173,33.2,172.8,32.9z"/>
	</g>
	<g>
		<path class="st3" d="M79.5,34.9c-1.8-0.4-3.5-0.8-5.2-1.3c-0.9-0.3-1.9-0.5-2.8-0.2c-0.6,0.2-1.1,0.4-1.6,0.7
			c-0.7,0.4-0.8,1.2-0.2,1.8c1,1.1,2,1.9,3.6,1.7c0.3,0,0.7,0.1,1,0.3c0.7,0.3,0.9,0.6,0.6,1.5c-0.5,1.4-0.7,2.9-1.1,4.4
			c-0.1,0.3-0.2,0.6-0.3,1c-0.8-0.2-1.6-0.4-2.4-0.6c-0.9-0.2-1.8-0.3-2.6,0.5c-0.8,0.8-0.8,1.8-0.3,2.7c0.3,0.7,1,1,1.8,1
			c1.5,0.1,3,0.1,4.5,0.2c0.3,0,0.6,0.1,0.8,0.2c1.3,0.7,1.6,1.3,0.9,2.6c-0.8,1.6-1.8,3-3,4.3c-0.4,0.4-1.5,0.5-2.2,0.4
			c-3.7-0.6-7.4-1.2-11-2c-1.4-0.3-2.9-0.6-3.9-2c-0.7-1-0.9-2.2-0.5-3.2c1.3-3.2,2.8-6.3,4.4-9.4c0.6-1.3,1.7-2.3,2.5-3.5
			c1.5-2.2,1.4-4.6,1.2-7.1c-0.2-1.5-0.6-2.9-0.9-4.4c0.8-0.6,1.7-0.7,2.6-0.3c1.4,0.7,3,0.8,4.5,1c1,0.1,1.9,0.4,2.9,0.6
			c1.4,0.4,2.9,0.8,4.3,1.2c2.3,0.6,2.4,0.9,2.6,3.4C79.9,31.8,79.6,33.2,79.5,34.9z"/>
		<path class="st1" d="M71.8,56.8c-0.3,0-0.6,0-0.8-0.1l-0.1,0c-3.6-0.6-7.3-1.2-10.9-2l-0.2,0c-1.3-0.3-3-0.7-4-2.2
			c-0.8-1.2-1-2.6-0.5-3.7c1.3-3,2.8-6.2,4.4-9.4c0.4-0.8,1-1.5,1.6-2.3c0.3-0.4,0.7-0.9,1-1.3c1.4-2.1,1.3-4.4,1.1-6.7
			c-0.1-1-0.3-1.9-0.6-3c-0.1-0.4-0.2-0.9-0.3-1.4l-0.1-0.3l0.3-0.2c1-0.7,2.1-0.8,3.1-0.3c1.2,0.6,2.6,0.7,4,0.9c0.1,0,0.2,0,0.3,0
			c0.8,0.1,1.6,0.3,2.4,0.5c0.2,0,0.4,0.1,0.6,0.1c0.9,0.2,1.8,0.5,2.7,0.7c0.5,0.1,1.1,0.3,1.6,0.4c1.1,0.3,1.9,0.6,2.4,1.2
			c0.4,0.6,0.5,1.3,0.6,2.6c0.1,1,0,1.9-0.1,3c-0.1,0.5-0.1,1-0.1,1.5l0,0.6l-0.6-0.1c-0.6-0.1-1.1-0.3-1.6-0.4
			c-1.2-0.3-2.4-0.6-3.6-0.9c-0.8-0.2-1.7-0.4-2.5-0.2c-0.5,0.2-1.1,0.3-1.5,0.6c-0.2,0.1-0.3,0.2-0.3,0.4c0,0.2,0.1,0.4,0.2,0.6
			c0.9,1.1,1.8,1.7,3.1,1.6c0.4-0.1,0.8,0.1,1.1,0.2c0.1,0,0.1,0,0.2,0.1c1,0.4,1.3,1.1,0.9,2.1c-0.3,1-0.6,2-0.8,3
			c-0.1,0.5-0.2,0.9-0.3,1.4c0,0.2-0.1,0.4-0.2,0.6c0,0.1-0.1,0.2-0.1,0.4L74,45.5l-0.5-0.1c-0.3-0.1-0.5-0.1-0.7-0.2
			c-0.5-0.1-1.1-0.3-1.6-0.4c-0.9-0.2-1.6-0.2-2.1,0.3c-0.6,0.5-0.6,1.2-0.2,2.1c0.1,0.3,0.4,0.7,1.3,0.7c0.7,0,1.4,0.1,2,0.1
			c0.8,0,1.6,0.1,2.4,0.1c0.4,0,0.7,0.1,1,0.3c0.6,0.3,1.2,0.7,1.4,1.3c0.3,0.7,0,1.4-0.3,2c-0.8,1.6-1.9,3.1-3.1,4.4
			C73.3,56.6,72.5,56.8,71.8,56.8z M63.5,24.9c0.1,0.3,0.2,0.7,0.2,1c0.2,1,0.5,2,0.6,3.1c0.3,2.5,0.3,5.1-1.2,7.4
			c-0.3,0.5-0.7,0.9-1,1.4c-0.5,0.7-1.1,1.4-1.4,2.1c-1.6,3.2-3.1,6.4-4.4,9.4c-0.3,0.8-0.2,1.8,0.4,2.7c0.8,1.2,2.1,1.5,3.4,1.8
			l0.2,0c3.6,0.8,7.3,1.4,10.9,2l0.1,0c0.8,0.1,1.6,0,1.7-0.2c1.2-1.3,2.1-2.7,2.9-4.2c0.3-0.7,0.3-0.9,0.2-1.1
			c-0.1-0.2-0.4-0.5-1-0.8c-0.1-0.1-0.4-0.1-0.6-0.1c-0.8,0-1.6-0.1-2.4-0.1c-0.7,0-1.4-0.1-2-0.1c-1.1-0.1-1.8-0.5-2.2-1.3
			c-0.6-1.3-0.5-2.5,0.4-3.3c0.9-0.9,2.1-0.8,3.1-0.6c0.6,0.1,1.1,0.3,1.6,0.4c0.1,0,0.2,0,0.2,0.1c0-0.2,0.1-0.3,0.1-0.5
			c0.1-0.4,0.2-0.9,0.3-1.3c0.2-1,0.4-2.1,0.8-3.1c0.1-0.4,0.1-0.5,0.1-0.6c0,0-0.1-0.1-0.4-0.2c-0.1,0-0.1,0-0.2-0.1
			c-0.2-0.1-0.5-0.2-0.6-0.2c-1.9,0.2-3.1-0.8-4.1-1.9c-0.4-0.5-0.6-1-0.5-1.5c0.1-0.5,0.4-0.9,0.8-1.2c0.6-0.3,1.2-0.5,1.7-0.7
			c1.1-0.4,2.2-0.1,3.1,0.2c1.2,0.3,2.3,0.6,3.6,0.9c0.3,0.1,0.7,0.2,1,0.2c0-0.3,0.1-0.6,0.1-0.9c0.1-1,0.2-1.9,0.1-2.8
			c-0.1-1.1-0.2-1.8-0.4-2.1c-0.2-0.3-0.8-0.5-1.8-0.8c-0.5-0.1-1.1-0.3-1.6-0.4c-0.9-0.2-1.8-0.5-2.7-0.7c-0.2,0-0.4-0.1-0.6-0.2
			c-0.8-0.2-1.5-0.4-2.2-0.5c-0.1,0-0.2,0-0.3,0c-1.4-0.1-2.9-0.3-4.3-1C64.7,24.5,64.1,24.5,63.5,24.9z"/>
	</g>
	<g>
		<path class="st1" d="M68,68.3c0.9,0,1.7,0,2.5,0c0.5,0,0.7,0.2,0.6,0.6c-0.1,2-0.2,4-0.3,6c-0.1,1.8-0.1,1.7,1.6,1.7
			c0.5,0,0.7-0.2,0.7-0.6c0-0.9,0-1.9,0-2.8c0.1-1.6,0.2-3.2,0.3-4.9c0.9,0,1.6,0,2.4,0c0.8,0,0.6-0.5,0.7-1c0-0.5-0.1-0.8-0.7-0.8
			c-2.4,0-4.7,0-7.1,0c-0.5,0-0.7,0.2-0.7,0.6C68,67.5,68,67.9,68,68.3z"/>
	</g>
	<g>
		<path class="st2" d="M5.2,13.7c1.6-0.2,3.2-0.3,4.8-0.5c4.7-0.6,9.3-1.4,14-2c3.5-0.4,6.9-1,10.4-0.7c2,0.2,3.9,0.6,5.8,1
			c2.2,0.5,4.4,1.2,6.7,1.8c0.4,0.1,0.8,0.3,1.1,0.6c0.5,0.3,0.9,0.8,1.4,1c2.3,1.2,3.6,3.3,4.6,5.5c0.4,0.9,0.4,2,0.6,3
			c0.8,3.1-0.2,6-1,8.9c0,0.1-0.1,0.3-0.2,0.4c-2.3,3.2-4.8,6.1-8.4,7.8c-0.8,0.4-1.9,0.3-2.9,0.4c-3.2,0.4-6.4,0.8-9.6,1.2
			c-0.7,0.1-1.4,0.2-2.4,0.3c0,1.3,0,2.6,0,4c0,2.8-0.1,5.5-0.2,8.3c0,0.9-0.7,1.5-1.5,1.5c-4,0.2-8,0.4-12,0.5c-1.2,0-2.4,0-3.5,0
			c-1.1,0-1.4-0.4-1.2-1.5c0.9-5.8,1.8-11.6,2.6-17.4c0.6-4,1.2-8.1,1.8-12.1c0.2-1.2-0.2-2.2-0.9-3.1c-1.3-1.8-3-2.6-5.2-2.4
			c-1.5,0.1-2.9-0.1-4-1.2c-0.7-0.8-1.3-1.5-1.2-2.7C5.2,15.5,5.1,14.6,5.2,13.7z M30.8,21.9c-0.1,2.7-0.2,5.5-0.2,8.2
			c0,0.6,0.9,1.3,1.5,1c1.8-0.7,3.5-1.6,4.8-3.1c0.6-0.7,0.9-1.6,0.4-2.6c-0.4-0.8-0.8-1.7-1.3-2.5c-0.2-0.3-0.5-0.5-0.8-0.7
			C33.8,21.3,32.4,21.6,30.8,21.9z"/>
	</g>
	<g>
		<path class="st2" d="M157,47.6c-2.9,0.3-5.8,0.6-8.6,0.9c-0.4,0-0.8,0.1-1.2,0.2c-0.6,0.2-0.9,0.1-0.9-0.6
			c-0.2-3.5-0.5-7.1-0.7-10.6c0-0.3,0.1-0.6,0.1-0.9c0.2-1.4-0.6-2.3-1.5-3.1c-0.3-0.3-1-0.5-1.6-0.5c-1.1,0-2.2,0-3.2,0.2
			c-1.5,0.3-1.9,1.6-2.5,2.7c-0.1,0.2-0.1,0.6-0.1,0.9c0,3.1,0,6.2,0,9.3c0,0.3,0,0.6,0,1c-1.5,0.2-3,0.4-4.5,0.6
			c-2.4,0.3-4.7,0.6-7.1,1c-0.6,0.1-0.6-0.3-0.7-0.7c-0.3-2.3-0.6-4.7-1-7c-0.5-2.8-0.6-5.6-0.4-8.3c0.1-1.3,0.8-2.6,1.4-3.7
			c1.2-2,2.6-3.9,3.8-5.9c0.3-0.4,0.4-1,0.4-1.5c-0.7-3.8-1.3-7.5-2.1-11.2c-0.3-1.2-0.8-2.4-1.3-3.6c0.4-0.2,0.8-0.4,1.2-0.6
			c2.5-1,5-2.1,7.5-3.1c1.8-0.7,3.4,0.2,3.4,2.1c0,2.7,0,5.4,0,8.1c0,2.5,0,5,0,7.6c1.3,0,2.5,0,3.6,0c1,0,2.1,0,3.1,0.1
			c0.9,0.1,1.2-0.3,1.2-1.1c0.1-1.7,0.2-3.3,0.3-5c0.1-2.4,0.3-4.8,0.5-7.2c0-0.3,0.3-0.7,0.6-0.9c2.8-1.3,5.5-2.6,8.3-3.7
			c0.7-0.3,1.6-0.1,2.4-0.1c0.2,0,0.5,0.3,0.5,0.6c0.5,1.8,1.2,3.5,1.3,5.3c0.3,4.9-0.1,9.8-0.9,14.6c-0.5,2.6-1.4,5-2.1,7.6
			c-0.5,1.9-1,3.8-1.5,5.7c-0.1,0.3,0,0.7,0,1.1c0.7,3.1,1.5,6.1,2.3,9.2C156.9,47.1,157,47.3,157,47.6z"/>
	</g>
	<g>
		<path class="st2" d="M220.5,14.3c4.7-0.7,9.3-1.4,13.9-2c1.7-0.2,3.3-0.5,5-0.6c4.1-0.1,8,0.7,11.6,2.4c2.4,1.1,4.5,3,5.2,5.7
			c0.6,2.3,0.7,4.7,0.1,7.2c-0.8,3.2-3,5.3-5.4,7.2c-1.3,1-2.7,1-4.1,1.1c-2.6,0.3-5.3,0.7-8.1,1c0,1.4,0,2.6,0,3.8
			c0,1.8-0.1,3.6-0.1,5.4c0,1.1-0.4,1.4-1.5,1.5c-2.4,0.1-4.7,0.2-7.1,0.3c-1.3,0.1-2.6,0.1-3.9,0.2c-0.8,0-1.1-0.4-1-1.2
			c0.4-3,0.8-6,1.3-9c0.7-4.5,1.3-8.9,2.2-13.4c0.4-2.1-1.6-4.9-4-4.7c-1.1,0.1-2.2,0.1-3.1-0.8c-0.7-0.7-1.1-1.5-1-2.5
			C220.5,15.4,220.5,14.8,220.5,14.3z M239,20.4c0,2.2,0,4.3,0,6.3c0,0.7,0.7,1.1,1.3,0.8c1-0.6,1.9-1.2,2.8-1.9
			c0.3-0.2,0.5-0.5,0.6-0.9c0.7-1.5-0.9-4.4-2.6-4.5C240.4,20.2,239.8,20.4,239,20.4z"/>
	</g>
	<g>
		<path class="st2" d="M76.4,9.8c3.3-1.6,6.6-3.2,10.4-3c0.7,0,1.4,0.2,2.1,0.5c3.5,1.3,7,1.8,10.6,0.7c1.7-0.5,3.3-1,5.1-1.6
			c1.1,3.2,1.9,6.6,1.7,10.2c-2.4,0.3-4.7,0.5-7.1,0.8c0,0.8,0,1.5,0,2.3c0,1.3,0.1,2.5,0.1,3.8c0.1,2.4-0.7,4.5-2.4,6.2
			c-0.2,0.2-0.3,0.6-0.4,0.9c-0.3,2.6,0.4,5,1.3,7.3c0.1,0.4,0.4,0.7,0.7,1c1,1.4,2.1,2.9,3.2,4.5c-1.3,0.3-2.4,0.6-3.5,0.9
			c-2.8,0.7-5.6,1.3-8.4,1.9c-0.6,0.1-0.8,0-0.9-0.5c-0.8-2.6-1.8-5.2-2.5-7.8c-0.8-3-0.6-5.9,1.2-8.6c0.9-1.3,1.3-2.8,1.3-4.3
			c0-1.6-1-2.9-1.9-4.2c-1-1.4-2.1-2-3.9-1.5c-1.6,0.4-3.3,0.5-4.9,0.6c-1.5,0.1-2.4-1.3-1.8-2.7c0.8-2.1,0.5-4.2,0.4-6.3
			C76.6,10.6,76.5,10.2,76.4,9.8z"/>
	</g>
	<g>
		<path class="st2" d="M268,34.9c-0.3-0.1-0.5-0.2-0.8-0.2c-1.5,0-2.5-1-3.3-2.1c-0.2-0.2-0.3-0.5-0.4-0.8c-0.7-2.1-0.5-4.2,0-6.2
			c0.2-1,0.5-1.9,0.6-2.9c0.1-1.4,0-2.9-0.9-4.1c-0.9-1.3-1.9-2.5-2.8-3.7c-0.2-0.3-0.4-0.7-0.7-1.2c0.7-0.1,1.3-0.2,1.8-0.2
			c2.8,0.5,5.5,1,8.3,1.5c1.7,0.3,1.8,0.4,2.1,2.1c0.5,3,1.1,6.1,1.6,9.1c0,0.2,0.1,0.4,0.2,0.9c1.2-1.9,2.3-3.7,3.4-5.4
			c1-1.5,1.9-3,2.9-4.5c0.2-0.2,0.5-0.4,0.8-0.4c3.6-0.1,7.1-0.2,10.7-0.3c0.3,0,0.7,0,1,0.1c1.7,0.5,2,1.5,1,3.1
			c-1.5,2.2-3,4.3-4.5,6.4c-1.1,1.5-2.3,3-3.5,4.5c-0.3,0.4-0.8,0.6-1.3,0.7c-1.8,0.5-3.6,0.8-5,2c-1.3,1.1-2.6,2.2-3.4,3.8
			c-2.2,4.6-4.5,9.1-6.8,13.7c-0.6,1.2-0.9,1.3-2.2,0.9c-2.2-0.5-4.4-1.1-6.6-1.6c-0.5-0.1-1.1-0.2-1.7-0.3c-1-0.3-1.2-0.9-0.6-1.7
			c2.2-2.8,4.4-5.7,6.5-8.5c1.1-1.4,2.1-2.9,3.2-4.4C267.9,35.2,267.9,35.1,268,34.9z"/>
	</g>
	<g>
		<path class="st2" d="M190.3,18.1c4-0.6,7.8-1,11.6-1.7c4.8-0.8,9.5-0.4,14,1.3c2.2,0.8,4.1,2.4,4.8,4.7c0.5,1.5,0.4,3.2,0.3,4.7
			c-0.4,3.6-2.8,5.7-5.7,7.4c-0.5,0.3-1.2,0.3-1.9,0.4c-2.5,0.3-5,0.6-7.7,0.9c0,1.6,0,3.2,0,4.8c0,0.9,0,1.8,0,2.7
			c0,0.7-0.4,1.1-1.2,1.2c-2.8,0.1-5.6,0.2-8.3,0.3c0,0-0.1,0-0.1,0c-2,0.1-2.1,0-1.8-2c0.6-4.2,1.2-8.5,1.9-12.7
			c0.2-1.4,0.5-2.7,0.8-4.1c0.3-2.2-1-3.8-3.2-4c-0.4,0-0.9-0.1-1.3-0.1c-1.5,0-2.4-1-2.3-2.6C190.2,19,190.2,18.5,190.3,18.1z
			 M206,23c0,1.7,0,3.4,0,5.1c0,0.5,0.5,1,1.1,0.6c0.8-0.4,1.6-0.9,2.3-1.4c0.4-0.3,0.8-0.9,0.8-1.4c0-1.8-1.6-3.1-3.4-3
			C206.6,23,206.4,23,206,23z"/>
	</g>
	<g>
		<path class="st2" d="M171.2,49.1c-1.2,0-2.4,0-3.5,0c-1.6,0-3.2-0.1-4.8,0c-0.6,0-0.8-0.2-0.8-0.8c0.1-2,0.2-4,0.3-6
			c0.1-1.5,0.1-2.9,0.3-4.4c0-0.4,0.3-0.8,0.5-1.2c0.1-0.2,0.3-0.3,0.4-0.4c1.9-1.4,2.9-3.4,3.5-5.5c0.4-1.6,0.7-3.2,0.3-4.8
			c-0.3-1.1-0.5-2.2-0.7-3.3c0-0.3,0.2-0.8,0.4-1.1c1.7-1.5,3.4-3,5.2-4.5c0.6-0.5,1.3-0.8,1.9-1.2c0.7-0.3,2.1,0.5,2.7,1.4
			c1.2,1.8,1.8,3.8,2.4,5.8c1.3,3.9,2.6,7.7,4,11.6c0.6,1.4,1.5,2.8,2.4,4c0.8,1.2,1.8,2.4,2.8,3.5c0.6,0.8,0.5,1.9-0.4,2.4
			c-1.7,0.9-3.5,1.7-5.3,2.6c-0.5,0.2-0.7-0.1-0.9-0.4c-1-1.4-2-2.8-3-4.2c-0.4-0.6-0.8-0.8-1.6-0.7c-1.7,0.3-3.3,0.5-5,0.6
			c-0.6,0.1-0.8,0.2-0.8,0.8C171.5,45.3,171.3,47.2,171.2,49.1z M172.4,36.2c1.1-0.1,2-0.2,2.9-0.4c0.6-0.1,0.8-0.7,0.4-1.3
			c-0.6-1-1.2-1.9-1.8-2.9c-0.5-0.8-1-1.5-1.6-2.5C172.4,31.6,172.4,33.8,172.4,36.2z"/>
	</g>
	<g>
		<path class="st2" d="M79.6,32.9c-1.8-0.4-3.5-0.8-5.2-1.3c-0.9-0.3-1.9-0.5-2.8-0.2c-0.6,0.2-1.1,0.4-1.6,0.7
			c-0.7,0.4-0.8,1.2-0.2,1.8c1,1.1,2,1.9,3.6,1.7c0.3,0,0.7,0.1,1,0.3c0.7,0.3,0.9,0.6,0.6,1.5c-0.5,1.4-0.7,2.9-1.1,4.4
			c-0.1,0.3-0.2,0.6-0.3,1c-0.8-0.2-1.6-0.4-2.4-0.6c-0.9-0.2-1.8-0.3-2.6,0.5c-0.8,0.8-0.8,1.8-0.3,2.7c0.3,0.7,1,1,1.8,1
			c1.5,0.1,3,0.1,4.5,0.2c0.3,0,0.6,0.1,0.8,0.2c1.3,0.7,1.6,1.3,0.9,2.6c-0.8,1.6-1.8,3-3,4.3c-0.4,0.4-1.5,0.5-2.2,0.4
			c-3.7-0.6-7.4-1.2-11-2c-1.4-0.3-2.9-0.6-3.9-2c-0.7-1-0.9-2.2-0.5-3.2c1.3-3.2,2.8-6.3,4.4-9.4c0.6-1.3,1.7-2.3,2.5-3.5
			c1.5-2.2,1.4-4.6,1.2-7.1c-0.2-1.5-0.6-2.9-0.9-4.4c0.8-0.6,1.7-0.7,2.6-0.3c1.4,0.7,3,0.8,4.5,1c1,0.1,1.9,0.4,2.9,0.6
			c1.4,0.4,2.9,0.8,4.3,1.2c2.3,0.6,2.4,0.9,2.6,3.4C80,29.8,79.7,31.2,79.6,32.9z"/>
	</g>
	<g>
		<path class="st1" d="M30.8,21.9c1.6-0.3,3.1-0.6,4.4,0.4c0.3,0.2,0.6,0.4,0.8,0.7c0.5,0.8,0.9,1.6,1.3,2.5c0.5,1,0.2,1.8-0.4,2.6
			c-1.3,1.5-3,2.4-4.8,3.1c-0.6,0.2-1.5-0.4-1.5-1C30.6,27.3,30.7,24.6,30.8,21.9z"/>
	</g>
	<g>
		<path class="st1" d="M239,20.4c0.8-0.1,1.5-0.2,2.1-0.1c1.7,0.1,3.3,3,2.6,4.5c-0.1,0.3-0.4,0.6-0.6,0.9c-0.9,0.7-1.8,1.3-2.8,1.9
			c-0.6,0.3-1.3-0.1-1.3-0.8C238.9,24.7,239,22.6,239,20.4z"/>
	</g>
	<g>
		<path class="st1" d="M206,23c0.4,0,0.6-0.1,0.8-0.1c1.8-0.2,3.4,1.2,3.4,3c0,0.5-0.4,1.1-0.8,1.4c-0.7,0.6-1.5,1-2.3,1.4
			c-0.6,0.3-1-0.1-1.1-0.6C206,26.4,206,24.8,206,23z"/>
	</g>
	<g>
		<path class="st1" d="M172.4,36.2c0-2.3,0-4.6,0-7c0.6,0.9,1.1,1.7,1.6,2.5c0.6,1,1.2,1.9,1.8,2.9c0.3,0.6,0.2,1.2-0.4,1.3
			C174.4,36,173.4,36,172.4,36.2z"/>
	</g>
	<g>
		<path class="st4" d="M192,76.5c0-1.3,0-2.6,0-3.8c0-1.2,0-2.4,0-3.7c-0.8,2.2-1.7,4.5-2.5,6.7c-0.2,0.4-0.2,0.9-0.9,0.8
			c-0.7-0.1-1.5,0.2-1.7-0.9c-0.5-2.2-1.2-4.3-1.9-6.5c-0.1,2.1-0.3,4.2-0.3,6.3c0,0.8-0.2,1.2-1.1,1.1c-0.3,0-0.5,0-0.9,0
			c0.1-1.7,0.3-3.3,0.4-5c0.1-1.4,0.2-2.9,0.3-4.3c0-0.5,0.2-0.7,0.8-0.7c2.1,0,2.1,0,2.7,1.9c0.5,1.7,1.1,3.4,1.6,5.2
			c0.5-1.4,1-2.7,1.6-4c0.3-0.8,0.6-1.6,0.9-2.4c0.2-0.5,0.5-0.7,1-0.7c0.7,0,1.5,0,2.2,0c0,0.7,0,1.4,0,2c0,2.4,0,4.9-0.1,7.3
			c0,0.5-0.2,0.7-0.7,0.7C192.9,76.6,192.5,76.6,192,76.5z"/>
	</g>
	<g>
		<path class="st4" d="M106.3,66.3c2.4,0.2,4.2,1.3,5,3.2c0.8,2,0.3,4.5-1.3,5.9c-2,1.9-6.3,1.8-8.2-0.1c-2.5-2.5-1.5-7.1,1.9-8.4
			C104.4,66.6,105.4,66.5,106.3,66.3z M106.1,68.1c-2.1,0-3.5,1.3-3.5,3.5c0,2.2,1.2,3.4,3.3,3.4c2.1,0,3.4-1.3,3.4-3.5
			C109.3,69.4,108.2,68.2,106.1,68.1z"/>
	</g>
	<g>
		<path class="st4" d="M48.2,66.6c0.7,0,1.5,0,2.2,0c3.2,0.1,4.2,2.2,4.2,4.6c0,1.9-0.6,3.7-2.4,4.6c-1.1,0.5-2.4,0.7-3.6,0.8
			c-1.1,0.1-2.1,0-3.2,0c-0.6,0-0.6-0.3-0.6-0.8c0.1-1.9,0.2-3.8,0.3-5.6c0-1,0.1-1.9,0.1-2.9c0-0.5,0.2-0.8,0.7-0.7
			C46.7,66.6,47.4,66.6,48.2,66.6C48.2,66.6,48.2,66.6,48.2,66.6z M48.8,74.9c1,0,2.1-0.1,2.8-1.2c0.9-1.3,0.9-2.7,0.4-4.1
			c-0.2-0.7-0.8-1.2-1.6-1.3c-0.8-0.1-1.5-0.1-2.3-0.1c-0.6,0-0.8,0.2-0.8,0.8c-0.1,1.5-0.2,3-0.2,4.5C47.1,75,47.1,75,48.8,74.9z"
			/>
	</g>
	<g>
		<path class="st4" d="M89.5,76.5c0.1-3.1,0.2-6.2,0.4-9.3c0-0.2,0.4-0.5,0.6-0.5c1.3-0.1,2.7,0,4.1,0c4-0.1,5.1,2.8,4.6,5.7
			c-0.4,2.7-2,4.1-4.8,4.2C92.8,76.6,91.1,76.5,89.5,76.5z M93.2,74.9c1.4,0,2.8-0.2,3.3-1.7c0.3-0.9,0.4-2,0.3-3
			c-0.1-1.2-0.9-1.7-2.1-1.9c-0.7-0.1-1.5-0.1-2.2-0.1c-0.2,0-0.6,0.4-0.6,0.6c-0.1,1.8-0.1,3.7-0.2,5.5c0,0.5,0.2,0.7,0.6,0.7
			C92.7,74.9,92.9,74.9,93.2,74.9z"/>
	</g>
	<g>
		<path class="st4" d="M229.6,66.3c2.4,0.1,4.3,1.2,5.1,3c0.8,2,0.4,4.5-1.1,6c-2,1.9-6.1,2-8.2,0.2c-2.7-2.4-1.8-7.2,1.6-8.5
			C227.9,66.6,228.8,66.5,229.6,66.3z M232.8,71.4c0-2-1-3.2-2.9-3.4c-1.7-0.2-3.2,0.9-3.6,2.6c-0.5,2,0.2,3.7,1.9,4.2
			C230.8,75.7,232.9,74.3,232.8,71.4z"/>
	</g>
	<g>
		<path class="st4" d="M82.6,66.2c2.8,0.1,5,1.6,5.4,4c0.6,3.6-1.4,6.7-6,6.5c-0.4,0-0.8-0.1-1.3-0.2c-2.1-0.4-3.5-1.9-3.8-3.8
			c-0.3-2.5,0.6-4.6,2.6-5.6C80.5,66.8,81.6,66.6,82.6,66.2z M85.8,71.5c0-1.8-0.8-2.9-2.2-3.3c-1.4-0.4-2.7-0.1-3.6,1
			c-1.1,1.3-1.1,2.9-0.4,4.4c0.6,1.3,1.9,1.5,3.2,1.5C84.7,75,85.8,73.6,85.8,71.5z"/>
	</g>
	<g>
		<path class="st4" d="M177.5,66.6c0,0.9,0,1.7,0,2.5c0,1.4-0.1,2.9-0.2,4.3c-0.1,1.5-0.8,2.5-2.3,3c-1.6,0.5-3.2,0.5-4.8,0
			c-1.5-0.5-2.3-1.5-2.2-3c0-2.1,0.2-4.2,0.3-6.2c0-0.2,0.3-0.5,0.5-0.5c0.6-0.1,1.2,0,1.9,0c-0.1,1.8-0.2,3.5-0.2,5.2
			c0,0.5,0,1,0,1.4c0.1,1.1,0.6,1.7,1.6,1.8c1.5,0.2,2.5-0.2,2.8-1.3c0.2-0.6,0.2-1.3,0.3-1.9c0.1-1.5,0.2-3,0.2-4.5
			c0-0.6,0.2-0.8,0.8-0.8C176.5,66.6,177,66.6,177.5,66.6z"/>
	</g>
	<g>
		<path class="st4" d="M141.8,72.1c0.4,0.8,0.8,1.5,1.2,2.2c0.4,0.7,0.8,1.4,1.3,2.3c-0.8,0-1.5,0-2.1,0c-0.1,0-0.3-0.2-0.4-0.4
			c-0.8-1.6-1.6-3.3-2.4-5.1c0.4,0,0.7,0.1,1,0c0.5-0.1,1.2-0.2,1.5-0.6c0.3-0.3,0.4-1,0.3-1.5c0-0.3-0.6-0.6-1-0.7
			c-0.7-0.1-1.4-0.1-2.2-0.1c0,1.5-0.1,2.9-0.1,4.4c0,1.1,0,2.2,0,3.3c0,0.6-0.3,0.8-0.8,0.8c-1.5-0.1-1.5-0.1-1.4-1.7
			c0.1-2.4,0.2-4.8,0.2-7.3c0-0.8,0.2-1.1,1.1-1c1.1,0.1,2.3,0,3.4,0c0.3,0,0.6,0,0.9,0.1c1.5,0.2,2.3,1,2.4,2.3
			c0.1,1.3-0.6,2.4-1.9,2.9C142.4,71.9,142.1,72,141.8,72.1z"/>
	</g>
	<g>
		<path class="st4" d="M144.3,76.6c0.8-1.5,1.5-2.9,2.3-4.3c0.8-1.6,1.7-3.2,2.5-4.9c0.3-0.6,0.6-0.8,1.3-0.8
			c1.8,0.1,1.8,0.1,2.4,1.8c0.9,2.5,1.8,5,2.7,7.5c0.1,0.2,0.1,0.3,0.2,0.6c-0.8,0-1.4,0-2.1,0c-0.2,0-0.3-0.3-0.4-0.6
			c-0.3-0.8-0.5-1.6-0.8-2.3c-0.1-0.3-0.5-0.4-0.8-0.6c0,0-0.1,0-0.1,0c-1,0-2.2-0.3-3,0.2c-0.7,0.4-1,1.6-1.4,2.5
			c-0.3,0.7-0.7,0.9-1.4,0.8C145.4,76.5,145,76.6,144.3,76.6z"/>
	</g>
	<g>
		<path class="st0" d="M150.7,68.4c-0.5,1.1-1,2.1-1.5,3c0.9,0,1.7,0,2.5,0C151.4,70.4,151.1,69.4,150.7,68.4z"/>
	</g>
	<g>
		<path class="st4" d="M206,76.6c-0.7,0-1.4,0-2.1,0c-0.1,0-0.3-0.2-0.3-0.3c-0.1-0.1-0.1-0.3-0.2-0.5c-1-2.9-1.2-3-4.3-2.6
			c-0.2,0-0.5,0.3-0.6,0.5c-0.4,0.7-0.8,1.5-1.1,2.3c-0.2,0.6-0.6,0.8-1.2,0.7c-0.5-0.1-0.9,0-1.5,0c0.1-0.2,0.1-0.4,0.1-0.5
			c1.5-2.9,3.1-5.8,4.6-8.8c0.3-0.6,0.6-0.7,1.3-0.7c1.8,0.1,1.8,0.1,2.4,1.8c0.9,2.5,1.8,4.9,2.7,7.4C205.8,76,205.9,76.2,206,76.6
			z M199.5,71.4c0.9,0,1.7,0,2.5,0c-0.4-1-0.7-2-1.1-3C200.4,69.5,200,70.4,199.5,71.4z"/>
	</g>
	<g>
		<path class="st4" d="M135.4,76.6c-0.8,0-1.4,0.1-2,0c-0.2,0-0.5-0.4-0.6-0.6c-0.3-0.7-0.5-1.5-0.8-2.2c-0.1-0.3-0.5-0.6-0.8-0.6
			c-1-0.1-2.2-0.3-2.9,0.1c-0.7,0.4-1,1.6-1.4,2.5c-0.3,0.7-0.7,1-1.5,0.8c-0.4-0.1-0.9,0-1.4,0c0.8-1.4,1.4-2.8,2.1-4.1
			c0.9-1.7,1.8-3.4,2.6-5.1c0.3-0.6,0.6-0.8,1.3-0.8c1.8,0.1,1.8,0.1,2.4,1.8c0.9,2.4,1.8,4.9,2.7,7.3
			C135.2,75.9,135.3,76.2,135.4,76.6z"/>
	</g>
	<g>
		<path class="st0" d="M130.4,68.4c-0.5,1.1-1,2.1-1.5,3.1c0.9,0,1.7,0,2.5,0C131.1,70.4,130.7,69.5,130.4,68.4z"/>
	</g>
	<g>
		<path class="st4" d="M255,76.6c-0.7,0-1.3,0.1-1.9,0c-0.2,0-0.5-0.3-0.6-0.6c-0.3-0.6-0.5-1.2-0.6-1.8c-0.2-0.8-0.6-1.2-1.5-1
			c-0.1,0-0.1,0-0.2,0c-2-0.5-3.1,0.5-3.7,2.4c-0.2,0.9-0.7,1.3-1.7,1.1c-0.3-0.1-0.7,0-1.3,0.1c0.2-0.4,0.3-0.6,0.4-0.9
			c1.4-2.8,2.9-5.5,4.3-8.3c0.3-0.6,0.7-0.8,1.4-0.8c1.8,0.1,1.8,0.1,2.4,1.8c0.9,2.4,1.8,4.9,2.6,7.3
			C254.8,75.9,254.9,76.2,255,76.6z M248.5,71.4c0.9,0,1.7,0,2.5,0c-0.4-1-0.7-2-1-3C249.5,69.5,249,70.4,248.5,71.4z"/>
	</g>
	<g>
		<path class="st4" d="M58.6,70.7c1.2,0,2.3,0,3.4,0c0.5,0,0.9,0,0.8,0.7c0,0.6-0.1,1-0.8,0.9c-0.9-0.1-1.9,0-2.8,0
			c-0.5,0-0.8,0.2-0.8,0.7c0,0.6,0,1.2,0,1.9c1.6,0,3.2,0,4.9,0c0,0.6-0.1,1.1-0.1,1.7c-2.4,0-4.8,0-7.3,0c0.1-1.1,0.2-2.1,0.2-3.2
			c0.1-2,0.2-3.9,0.2-5.9c0-0.6,0.2-0.9,0.9-0.9c2.1,0,4.2,0,6.3,0c0,0.3,0,0.6,0,0.9c0,0.6-0.2,0.8-0.9,0.8c-1.1-0.1-2.2,0-3.3-0.1
			c-0.7,0-0.9,0.2-0.9,0.9C58.7,69.6,58.6,70,58.6,70.7z"/>
	</g>
	<g>
		<path class="st4" d="M116.7,76.6c0.1-2.4,0.2-4.7,0.3-7.1c0-0.7,0.1-1.5,0.1-2.2c0-0.5,0.2-0.8,0.7-0.8c1.2,0,2.3,0,3.5,0
			c1.9,0,2.9,0.8,3.1,2.5c0.1,1.6-1,3-2.6,3.3c-0.2,0-0.3,0-0.5,0.1c-1.5,0.2-1.7,0-1.8-1.6c0.4,0,0.8,0,1.2,0c0.7,0,1.3-0.3,1.5-1
			c0.3-0.8-0.1-1.4-0.9-1.5c-0.4-0.1-0.9,0-1.3,0c-0.5,0-0.8,0.3-0.8,0.8c0,2.1-0.1,4.2-0.2,6.3c0,1.2,0,1.2-1.2,1.2
			C117.3,76.6,117.1,76.6,116.7,76.6z"/>
	</g>
	<g>
		<path class="st4" d="M222.7,68.4c-0.6-0.1-1.2-0.2-1.8-0.3c-2.9-0.4-4.9,1.8-4.3,4.6c0.3,1.3,1.3,2.3,2.7,2.3c0.5,0,1.1,0,1.6,0
			c0.5,0,1-0.2,1.5-0.3c0.1,1.7,0,1.9-1.5,1.9c-1.1,0-2.2,0.1-3.2-0.2c-2.4-0.6-3.6-2.4-3.4-4.9c0.1-2.6,1.6-4.5,4.2-4.9
			c1.1-0.2,2.2-0.1,3.3-0.1c0.8,0,1.1,0.4,1,1.2C222.7,67.9,222.7,68.1,222.7,68.4z"/>
	</g>
	<g>
		<path class="st4" d="M213,68.4c-0.5-0.1-0.9-0.2-1.3-0.3c-0.5,0-1-0.1-1.4,0.1c-0.3,0.1-0.8,0.4-0.9,0.8c-0.1,0.3,0.1,0.8,0.4,1.1
			c0.7,0.7,1.6,1.4,2.4,2c0.8,0.7,1.3,1.5,1,2.7c-0.4,1.2-1.3,1.8-2.5,1.9c-0.9,0.1-1.7,0.1-2.6,0c-1.4-0.1-1.6-0.5-1.3-1.9
			c0.9,0.1,1.8,0.3,2.7,0.3c0.5,0,1.1-0.3,1.4-0.7c0.4-0.5-0.2-0.9-0.6-1.3c-0.8-0.7-1.7-1.5-2.5-2.3c-1.4-1.4-0.9-3.4,1-4
			c1.2-0.4,2.4-0.3,3.6,0C213.2,66.9,212.8,67.7,213,68.4z"/>
	</g>
	<g>
		<path class="st4" d="M166.3,68.3c-0.4-0.1-0.8-0.2-1.2-0.2c-0.5,0-1-0.1-1.5,0.1c-1,0.2-1.2,1.1-0.4,1.8c0.8,0.7,1.6,1.3,2.4,2
			c0.8,0.7,1.4,1.6,1,2.8c-0.4,1.2-1.3,1.7-2.5,1.8c-0.8,0.1-1.6,0.1-2.3,0c-1.5-0.1-1.7-0.4-1.5-1.9c0.9,0.1,1.9,0.3,2.8,0.3
			c0.4,0,1.1-0.4,1.3-0.7c0.1-0.3-0.2-0.9-0.5-1.2c-0.8-0.8-1.7-1.4-2.4-2.2c-1.6-1.6-0.9-3.8,1.2-4.2c0.9-0.2,1.8-0.1,2.7,0
			C166.4,66.7,166.6,67,166.3,68.3z"/>
	</g>
	<g>
		<path class="st4" d="M241.2,68.3c-0.1,2.1-0.2,4.1-0.3,6.1c0,0.2,0,0.3,0,0.5c0,1.9-0.1,1.9-1.9,1.7c-0.6-0.1-0.4-0.5-0.4-0.8
			c0.1-2.4,0.2-4.7,0.4-7.1c0-0.1,0-0.2,0-0.4c-1,0-2,0-3.1,0c0-0.4-0.1-0.8,0-1.1c0.1-0.2,0.4-0.6,0.6-0.6c2.4,0,4.8,0,7.2,0
			c0.5,0,0.7,0.3,0.6,0.7c-0.1,0.4,0.1,1-0.7,1C242.9,68.3,242.1,68.3,241.2,68.3z"/>
	</g>
	<g>
		<path class="st4" d="M68,68.3c0-0.4,0-0.7,0-1c0-0.5,0.2-0.6,0.7-0.6c2.4,0,4.7,0,7.1,0c0.6,0,0.7,0.3,0.7,0.8c0,0.5,0.1,1-0.7,1
			c-0.8,0-1.5,0-2.4,0c-0.1,1.6-0.2,3.2-0.3,4.9c0,0.9-0.1,1.9,0,2.8c0,0.5-0.2,0.6-0.7,0.6c-1.7,0-1.7,0-1.6-1.7c0.1-2,0.2-4,0.3-6
			c0-0.5-0.1-0.7-0.6-0.6C69.8,68.3,69,68.3,68,68.3z"/>
	</g>
	<g>
		<path class="st0" d="M199.5,71.4c0.5-1,0.9-1.9,1.5-3c0.4,1.1,0.7,2,1.1,3C201.1,71.4,200.3,71.4,199.5,71.4z"/>
	</g>
	<g>
		<path class="st0" d="M248.5,71.4c0.5-1,0.9-1.9,1.5-3c0.4,1.1,0.7,2,1,3C250.2,71.4,249.4,71.4,248.5,71.4z"/>
	</g>
</g>
</svg>
